<svg xmlns="http://www.w3.org/2000/svg" width="20" height="18.181" viewBox="0 0 20 18.181">
    <path fill="#089df2" d="M-3831.741-10987.127h-13.91a1.739 1.739 0 0 1-1.74-1.733v-8.224h2.858v-2.6h2.606v-3.031h5.838l1.591 1.733h2.755a1.737 1.737 0 0 1 1.74 1.729v10.388a1.738 1.738 0 0 1-1.738 1.738zm-6.954-11.254a4.344 4.344 0 0 0-4.35 4.328 4.345 4.345 0 0 0 4.35 4.33 4.343 4.343 0 0 0 4.347-4.33 4.342 4.342 0 0 0-4.347-4.328zm6.083-.867a.868.868 0 0 0-.867.867.867.867 0 0 0 .867.865.869.869 0 0 0 .87-.865.87.87 0 0 0-.869-.867zm-6.083 7.964a2.778 2.778 0 0 1-2.783-2.769 2.781 2.781 0 0 1 2.783-2.772 2.779 2.779 0 0 1 2.779 2.772 2.776 2.776 0 0 1-2.779 2.769zm-6.956-7.1h-1.74v-2.6H-3850v-1.733h2.61v-2.6h1.74v2.6h2.606v1.733h-2.606v2.6z" transform="translate(3850.001 11005.308)"/>
</svg>
