<svg xmlns="http://www.w3.org/2000/svg" width="28" height="28" viewBox="0 0 28 28">
    <g id="address" transform="translate(-1512 -585)">
        <path id="Fill_1101" fill="#089df2" stroke="#fff" stroke-width="0.5px" d="M7.057 16.333h-.083a2.51 2.51 0 0 1-.965-.222L1.06 13.876A1.863 1.863 0 0 1 0 12.175V2.181A1.8 1.8 0 0 1 1.746.328a1.66 1.66 0 0 1 .693.153L6.7 2.4a.669.669 0 0 0 .324.073h.058a.668.668 0 0 0 .27-.058L13.035.176A2.439 2.439 0 0 1 13.953 0h.069a2.529 2.529 0 0 1 .969.222l4.949 2.236a1.861 1.861 0 0 1 1.06 1.7v10a1.8 1.8 0 0 1-1.746 1.852 1.662 1.662 0 0 1-.693-.153L14.3 13.931a.784.784 0 0 0-.323-.074h-.055a.677.677 0 0 0-.274.058l-5.683 2.242a2.387 2.387 0 0 1-.908.176zm6.068-14.226l-5.16 2.042-.09.037v10.04l5.16-2.041.09-.038zm1.75.074v9.994l.116.055 4.259 1.922v-10zm-13.125 0v9.994l4.374 1.978v-10L6.009 4.1z" data-name="Fill 1101" transform="translate(1515.5 591.417)"/>
        <path id="Rectangle_5049" fill="none" d="M0 0H28V28H0z" data-name="Rectangle 5049" transform="translate(1512 585)"/>
    </g>
</svg>
