<svg xmlns="http://www.w3.org/2000/svg" id="prefix__Layer_2" width="16" height="16" data-name="Layer 2" viewBox="0 0 16 16">
    <g id="prefix__arrow-back" fill="#1895e8">
        <path id="prefix__Path_19905" d="M14 9H6.093l2.42-2.907a.667.667 0 1 0-1.026-.853l-3.333 4a.793.793 0 0 0-.06.1.084.084 0 0 1-.047.087.64.64 0 0 0 0 .48.084.084 0 0 0 .047.087.793.793 0 0 0 .06.1l3.333 4a.667.667 0 1 0 1.027-.853l-2.42-2.907H14A.667.667 0 0 0 14 9z" data-name="Path 19905" transform="translate(-1.333 -1.666)"/>
    </g>
</svg>
