<svg xmlns="http://www.w3.org/2000/svg" width="22.21" height="19.485" viewBox="0 0 22.21 19.485">
    <defs>
        <style>
            .cls-1{stroke:#000;stroke-width:.2px}
        </style>
    </defs>
    <g id="art" transform="translate(.1 -26.473)">
        <g id="Group_14678" data-name="Group 14678" transform="translate(0 26.576)">
            <g id="Group_14677" data-name="Group 14677">
                <path id="Path_20105" d="M176.233 159.668a2.244 2.244 0 1 0 2.244 2.244 2.244 2.244 0 0 0-2.244-2.244zm0 3.42a1.175 1.175 0 1 1 0-2.351 1.175 1.175 0 1 1 0 2.351z" class="cls-1" data-name="Path 20105" transform="translate(-165.092 -152.862)"/>
                <path id="Path_20106" d="M20.091 28.252L5.5 26.6a2 2 0 0 0-1.576.454 2.03 2.03 0 0 0-.775 1.389l-.263 2.187h-.828A2.147 2.147 0 0 0 0 32.847v10.927a2.03 2.03 0 0 0 1.976 2.083h14.749a2.193 2.193 0 0 0 2.244-2.084v-.427a2.671 2.671 0 0 0 1.015-.427 2.218 2.218 0 0 0 .775-1.443l1.229-10.846a2.164 2.164 0 0 0-1.897-2.378zM17.9 43.774a1.125 1.125 0 0 1-1.176 1.015H2.058a.962.962 0 0 1-.99-.933V41.8l4.142-3.049a1.282 1.282 0 0 1 1.656.08L9.779 41.4a2.511 2.511 0 0 0 1.576.588 2.431 2.431 0 0 0 1.282-.347l5.263-3.05v5.183zm0-6.438l-5.824 3.393a1.362 1.362 0 0 1-1.576-.134L7.561 38a2.378 2.378 0 0 0-2.961-.1l-3.531 2.561v-7.614a1.078 1.078 0 0 1 .989-1.147h14.667a1.229 1.229 0 0 1 1.175 1.147zm3.02-6.85v.014l-1.257 10.843a.908.908 0 0 1-.347.721c-.107.107-.347.16-.347.214v-9.431a2.3 2.3 0 0 0-2.244-2.217H3.955l.24-2.084a1.229 1.229 0 0 1 .4-.695 1.229 1.229 0 0 1 .8-.214l14.56 1.683a1.069 1.069 0 0 1 .965 1.166z" class="cls-1" data-name="Path 20106" transform="translate(0 -26.576)"/>
            </g>
        </g>
    </g>
</svg>
