<svg xmlns="http://www.w3.org/2000/svg" width="18.4" height="27.244" viewBox="0 0 18.4 27.244">
    <path fill="#089df2" stroke="#089df2" stroke-width="0.4px" d="M96.033 23.6v2.625a.444.444 0 1 1-.889 0V23.6a3.7 3.7 0 0 0-3.7-3.7 2.729 2.729 0 0 1-2.344-1.316.444.444 0 1 1 .759-.462 1.846 1.846 0 0 0 1.589.892 4.585 4.585 0 0 1 4.585 4.586zM82.62 19.9a3.7 3.7 0 0 0-3.7 3.7v2.625a.444.444 0 0 1-.889 0V23.6a4.585 4.585 0 0 1 4.587-4.587 1.853 1.853 0 0 0 1.857-1.852v-.117a5.954 5.954 0 0 1-3.382-5.144 1.814 1.814 0 0 1-1.393-1.76v-2.3a8.142 8.142 0 0 1 2.2-5.94c2.543-2.451 6.621-2.3 9.62-.852a.445.445 0 0 1 .094.74 6 6 0 0 1 3.671 2.641.491.491 0 0 1 .1.349.45.45 0 0 1-.128.282 2.9 2.9 0 0 0-.84 2.05v3.03a.444.444 0 1 1-.889 0V7.109a3.783 3.783 0 0 1 .872-2.416 5.134 5.134 0 0 0-3.685-2.163l-.781-.084a.445.445 0 0 1-.122-.853l.355-.146c-4.627-1.613-9.575.179-9.575 6.385v2.308a.918.918 0 0 0 .5.813V8.072A3.115 3.115 0 0 1 84.2 4.961h5.667a3.115 3.115 0 0 1 3.111 3.111v3.639a5.953 5.953 0 0 1-7.621 5.67 4.529 4.529 0 0 1-1.023 1.519 5.841 5.841 0 0 1-1.714 1zm4.413-3.169a5.061 5.061 0 0 0 5.056-5.056V8.072a2.225 2.225 0 0 0-2.223-2.222H84.2a2.225 2.225 0 0 0-2.222 2.222v3.605a5.061 5.061 0 0 0 5.055 5.056z" transform="translate(-77.833 .374)"/>
</svg>
