<svg xmlns="http://www.w3.org/2000/svg" width="28" height="20" viewBox="0 0 22.8 20.8">
    <g>
        <g>
            <g fill="#089df2" transform="translate(-2.6 -2.6) translate(3 3)">
                <path stroke="#fff" stroke-width="0.8px" d="M21.333 3H6.667A3.512 3.512 0 0 0 3 6.333v13.334A3.512 3.512 0 0 0 6.667 23h14.666A3.512 3.512 0 0 0 25 19.667V6.333A3.512 3.512 0 0 0 21.333 3zM6.667 5.222h14.666a1.171 1.171 0 0 1 1.222 1.111v9.289l-3.911-3.033a3.65 3.65 0 0 0-4.3 0l-8.9 6.744v-13a1.171 1.171 0 0 1 1.223-1.111zm14.666 15.556H7.351l8.556-6.489a1.031 1.031 0 0 1 1.137 0l5.512 4.267v1.111a1.171 1.171 0 0 1-1.223 1.111z" transform="translate(-3 -3)"/>
                <circle cx="1.4" cy="1.4" r="1.4" transform="translate(5.581 5)"/>
            </g>
        </g>
    </g>
</svg>
