<svg xmlns="http://www.w3.org/2000/svg" width="24" height="24" viewBox="0 0 24 24">
    <g id="ask_me" transform="translate(-494 -298)">
        <path id="Path_20058" fill="#091522" d="M334.218 410.266h-13.855a2.575 2.575 0 0 0-2.573 2.571v14.835a.593.593 0 0 0 .594.593.582.582 0 0 0 .306-.085l4.476-2.682a1.374 1.374 0 0 1 .715-.2h10.338a2.574 2.574 0 0 0 2.572-2.571v-9.89a2.574 2.574 0 0 0-2.573-2.571zm1.384 12.462a1.387 1.387 0 0 1-1.384 1.386H323.88a2.584 2.584 0 0 0-1.324.366l-2.979 1.785-.6.359v-13.787a1.387 1.387 0 0 1 1.385-1.385h13.855a1.386 1.386 0 0 1 1.384 1.385z" data-name="Path 20058" transform="translate(179.21 -109.266)"/>
        <path id="Rectangle_4902" fill="none" d="M0 0H24V24H0z" data-name="Rectangle 4902" transform="translate(494 298)"/>
    </g>
</svg>
