<svg xmlns="http://www.w3.org/2000/svg" width="28" height="28" viewBox="0 0 28 28">
    <defs>
        <style>
            .cls-2{fill:#141414}
        </style>
    </defs>
    <g id="auction" transform="translate(-1138 -1133)">
        <g id="search" transform="translate(-191 1036)">
            <path id="Rectangle_4765" fill="none" d="M0 0H28V28H0z" data-name="Rectangle 4765" transform="translate(1329 97)"/>
        </g>
        <g id="Group_10462" data-name="Group 10462" transform="translate(920.518 719.571)">
            <path id="Path_20055" d="M240.873 430.3l-.078.062.075-.065a2.177 2.177 0 0 0-.256-.235l-6.623-5.451.78-.825a2.242 2.242 0 0 0 .269.02 1.661 1.661 0 0 0 1.276-.5 2.025 2.025 0 0 0 .224-2.121 5.978 5.978 0 0 0-1.544-2.238c-1.62-1.511-3.581-1.966-4.47-1.031a1.791 1.791 0 0 0-.377 1.552l-4.058 4.28a1.837 1.837 0 0 0-1.548.463 1.608 1.608 0 0 0-.42 1.194 4.9 4.9 0 0 0 1.746 3.16 5.09 5.09 0 0 0 3.2 1.521 1.661 1.661 0 0 0 1.275-.489 1.793 1.793 0 0 0 .376-1.553l.774-.813 5.975 6.188a2.344 2.344 0 0 0 3.276.118 2.291 2.291 0 0 0 .128-3.237zm-7.124-6.954l-1.771 1.873-1.154 1.191-.62.66-3.1-2.886 3.544-3.733zm6.293 9.188l-.059.063a1.262 1.262 0 0 1-1.766.073l-5.988-6.2 1.042-1.1 6.659 5.468a1.237 1.237 0 0 1 .111 1.7zm-8.753-13.911c.4-.406 1.776-.022 2.975 1.093a4.914 4.914 0 0 1 1.285 1.821c.173.472.171.865.011 1.036a1.022 1.022 0 0 1-.95.119l-3.371-3.132a.987.987 0 0 1 .05-.939zm-1.731 10.277c-.4.4-1.775.019-2.973-1.092s-1.669-2.455-1.3-2.858a1.026 1.026 0 0 1 .949-.119l3.376 3.133a.977.977 0 0 1-.052.936z" class="cls-2" data-name="Path 20055"/>
            <path id="Path_20056" d="M229.947 433.335h-.093v-.145a.86.86 0 0 0-.861-.809h-5.731a.86.86 0 0 0-.861.809v.145h-.094a.825.825 0 0 0-.824.75v1.677a.825.825 0 0 0 .826.764h7.639a.827.827 0 0 0 .825-.751V434.1a.827.827 0 0 0-.826-.765zm-.525.854h.488v1.479h-7.565v-1.475h.488a.429.429 0 0 0 .431-.427v-.526h5.727v.521a.43.43 0 0 0 .431.428z" class="cls-2" data-name="Path 20056" transform="translate(0 -.097)"/>
        </g>
    </g>
</svg>
