<svg xmlns="http://www.w3.org/2000/svg" width="22" height="22" viewBox="0 0 22 22">
    <g id="awards" transform="translate(-754 -1371)">
        <g id="Polygon_16" fill="none" stroke="none" data-name="Polygon 16">
            <path d="M9.564 1.481a2 2 0 0 1 2.872 0l1.726 1.78a2 2 0 0 0 1.212.6l2.461.277A2 2 0 0 1 19.6 6.345l-.3 2.617a2 2 0 0 0 .285 1.273l1.381 2.24a2 2 0 0 1-.624 2.733l-2.154 1.382a2 2 0 0 0-.816 1.043l-.822 2.431a2 2 0 0 1-2.576 1.24l-2.293-.83a2 2 0 0 0-1.362 0l-2.293.83a2 2 0 0 1-2.576-1.24l-.822-2.431a2 2 0 0 0-.816-1.043l-2.157-1.381a2 2 0 0 1-.624-2.733l1.381-2.24A2 2 0 0 0 2.7 8.962l-.3-2.617a2 2 0 0 1 1.766-2.212l2.461-.277a2 2 0 0 0 1.212-.6z" transform="translate(754 1371)"/>
            <path fill="#002e5e" d="M11 2.873l-1.726 1.78c-.644.664-1.504 1.087-2.423 1.19l-2.461.278.294 2.617c.1.884-.102 1.788-.57 2.546l-1.38 2.24 2.157 1.382c.762.489 1.342 1.23 1.632 2.087l.822 2.43 2.293-.83c.438-.158.896-.239 1.362-.239.466 0 .924.08 1.362.24l2.293.83.822-2.43c.29-.858.87-1.6 1.632-2.088l2.157-1.382-1.38-2.24c-.468-.758-.67-1.662-.57-2.546l.294-2.617-2.46-.278c-.92-.103-1.78-.526-2.424-1.19l-1.724-1.78H11m0-2c.522 0 1.043.203 1.436.608l1.726 1.78c.322.333.75.543 1.212.595l2.46.277c1.098.124 1.887 1.114 1.764 2.212l-.295 2.617c-.05.444.05.892.285 1.273l1.38 2.24c.573.929.296 2.145-.623 2.733l-2.157 1.382c-.383.245-.67.613-.816 1.044l-.822 2.43c-.283.836-1.062 1.36-1.895 1.36-.226 0-.456-.038-.68-.12l-2.294-.83c-.22-.08-.45-.12-.681-.12-.23 0-.46.04-.68.12l-2.294.83c-.225.082-.455.12-.681.12-.833 0-1.612-.524-1.895-1.36l-.822-2.43c-.145-.43-.433-.799-.816-1.044L1.655 15.21c-.919-.589-1.196-1.805-.624-2.734l1.381-2.24c.235-.38.335-.83.285-1.273l-.295-2.617c-.123-1.098.666-2.088 1.764-2.212l2.46-.277c.461-.052.89-.262 1.212-.595l1.726-1.78c.393-.405.914-.608 1.436-.608z" transform="translate(754 1371)"/>
        </g>
        <circle id="Ellipse_471" cx="3" cy="3" r="3" fill="#fff" stroke="#002e5e" stroke-width="2px" data-name="Ellipse 471" transform="translate(762 1379.5)"/>
    </g>
</svg>
