<svg xmlns="http://www.w3.org/2000/svg" width="22.728" height="22.702" viewBox="0 0 22.728 22.702">
    <defs>
        <style>
            .prefix__cls-1{fill:#141414;stroke:#141414;stroke-width:.3px}
        </style>
    </defs>
    <g id="prefix__box" transform="translate(.152 .154)">
        <path id="prefix__Path_20102" d="M11.192 22.783a.463.463 0 0 1-.216-.053L.251 17.13A.467.467 0 0 1 0 16.716V6.217A.466.466 0 0 1 .675 5.8L11.4 11.166a.467.467 0 0 1 .258.417v10.733a.467.467 0 0 1-.225.4.46.46 0 0 1-.241.067zM.933 16.433l9.792 5.113v-9.674l-9.792-4.9z" class="prefix__cls-1" data-name="Path 20102" transform="translate(.001 -.384)"/>
        <path id="prefix__Path_20103" d="M11.975 22.783a.466.466 0 0 1-.467-.467V11.583a.467.467 0 0 1 .258-.417L22.491 5.8a.467.467 0 0 1 .676.417v10.5a.467.467 0 0 1-.251.413l-10.725 5.6a.463.463 0 0 1-.216.053zm.467-10.911v9.675l9.792-5.113V6.972zM22.7 16.716h.009z" class="prefix__cls-1" data-name="Path 20103" transform="translate(-.767 -.384)"/>
        <path id="prefix__Path_20104" d="M.467 6.3a.466.466 0 0 1-.209-.884L11 .049a.468.468 0 0 1 .417 0L22.14 5.416a.467.467 0 1 1-.417.835L11.207.988.676 6.25a.465.465 0 0 1-.209.05z" class="prefix__cls-1" data-name="Path 20104" transform="translate(.001)"/>
        <path id="prefix__Path_20105" d="M17.2 14.183a.467.467 0 0 1-.467-.467V8.871L6.266 3.634a.467.467 0 0 1 .418-.834l10.725 5.365a.47.47 0 0 1 .258.418v5.133a.467.467 0 0 1-.467.467z" class="prefix__cls-1" data-name="Path 20105" transform="translate(-.4 -.184)"/>
    </g>
</svg>
