<svg xmlns="http://www.w3.org/2000/svg" width="20" height="20" viewBox="0 0 20 20">
    <g>
        <g>
            <g>
                <path fill="#adafb3" stroke="#adafb3" stroke-width="0.2px" d="M3.179 38.136a1.879 1.879 0 0 1 1.363-.625 1.943 1.943 0 0 1 1.379.621L7.2 39.4c.1-.056.21-.109.31-.161.145-.073.282-.141.4-.214A13.849 13.849 0 0 0 11.223 36a8.17 8.17 0 0 0 1.089-1.718c-.331-.3-.637-.617-.935-.919l-.339-.343a1.85 1.85 0 0 1 0-2.79l1.1-1.1c.125-.125.254-.254.375-.383.242-.25.5-.508.758-.75a1.909 1.909 0 0 1 1.351-.593 1.975 1.975 0 0 1 1.372.596l.008.008 1.371 1.383a2.95 2.95 0 0 1 .875 1.875 7.069 7.069 0 0 1-.516 2.992 17.362 17.362 0 0 1-3.085 5.142 18.975 18.975 0 0 1-6.319 4.95A9.845 9.845 0 0 1 4.78 45.4c-.085 0-.173.008-.254.008a3.038 3.038 0 0 1-2.327-1c0-.008-.012-.012-.016-.02a9.167 9.167 0 0 0-.706-.73c-.173-.165-.351-.339-.524-.52a2.012 2.012 0 0 1-.609-1.4 1.938 1.938 0 0 1 .621-1.383zm-1.443 4.246c.157.169.319.323.492.492a10.6 10.6 0 0 1 .778.806 1.944 1.944 0 0 0 1.516.641h.185a8.746 8.746 0 0 0 3.145-.944 17.912 17.912 0 0 0 5.948-4.665 16.37 16.37 0 0 0 2.9-4.835 5.757 5.757 0 0 0 .452-2.524 1.851 1.851 0 0 0-.556-1.2l-1.375-1.375a.917.917 0 0 0-.613-.286.863.863 0 0 0-.589.282l-.012.012c-.246.23-.48.468-.726.722l-.383.391L11.8 31a.77.77 0 0 0 0 1.25c.117.117.23.234.347.347.339.347.661.669 1.012.984.008.008.016.012.02.02a.822.822 0 0 1 .21.915l-.012.036a8.838 8.838 0 0 1-1.3 2.125 14.8 14.8 0 0 1-3.581 3.258 5.5 5.5 0 0 1-.5.27c-.145.073-.282.141-.4.214-.016.008-.032.02-.048.028a.874.874 0 0 1-.4.1.862.862 0 0 1-.613-.278L5.159 38.9a.912.912 0 0 0-.609-.3.821.821 0 0 0-.581.294l-.008.008L1.74 41.12a.8.8 0 0 0-.004 1.262z" transform="translate(-1401 -400) translate(1373.294 373.594) translate(28.706 27.406) translate(-.344 -27.406)"/>
            </g>
        </g>
        <path fill="none" d="M0 0H20V20H0z" transform="translate(-1401 -400) translate(1401 400)"/>
    </g>
</svg>
