<svg xmlns="http://www.w3.org/2000/svg" width="64" height="56.662" viewBox="0 0 64 56.662">
    <path fill="#089df2" fill-rule="evenodd" d="M483.71 1790.687c-1.8-7.665-7.327-17.787-19.711-17.787-9.512 0-14.182 4.334-16.426 7.97a16.767 16.767 0 0 0-1.931 4.523c-5.963 1.731-13.639 6.617-13.639 16.958a17.555 17.555 0 0 0 11.411 16.958 29.049 29.049 0 0 0 10.4 2.181h1.454v-4.421h-1.454s-17.452 0-17.452-14.718c0-11.78 13.089-13.249 13.089-13.249s0-11.78 14.544-11.78 16 17.671 16 17.671a10.8 10.8 0 0 1 1.21-.058c2.979 0 10.425.945 10.425 10.37 0 11.766-17.453 11.766-17.453 11.766h-2.907v4.421h2.909c7.545 0 21.816-3.388 21.816-16.187 0-9.605-6.159-13.76-12.285-14.618zm-12.217 11.33a2.182 2.182 0 0 0 3.083.116 2.218 2.218 0 0 0 .122-3.113l-8.726-9.584a2.159 2.159 0 0 0-2.136-.611 2.189 2.189 0 0 0-2.113.567l-9.453 9.759a2.232 2.232 0 0 0 .028 3.127 2.181 2.181 0 0 0 3.085-.029l5.716-5.9v31.036a2.182 2.182 0 1 0 4.363 0V1795.4z" transform="translate(-431.995 -1772.9)"/>
</svg>
