<svg xmlns="http://www.w3.org/2000/svg" width="32" height="32" viewBox="0 0 32 32">
    <defs>
        <clipPath id="clip-path">
            <path id="_Icon_小olor" fill="#474747" stroke="#fff" stroke-miterlimit="10" stroke-width="0.1px" d="M17.5 17h-15A2.47 2.47 0 0 1 0 14.568V2.431A2.469 2.469 0 0 1 2.5 0h4.6a.994.994 0 0 1 .774.367l2.6 3.179H17.5A2.47 2.47 0 0 1 20 5.978v8.59A2.47 2.47 0 0 1 17.5 17zM2.5 2a.47.47 0 0 0-.5.431v12.137a.471.471 0 0 0 .5.432h15a.471.471 0 0 0 .5-.432v-8.59a.471.471 0 0 0-.5-.432H10a1 1 0 0 1-.774-.368L6.626 2z" data-name=" Icon 小olor" transform="translate(2 3.5)"/>
        </clipPath>
        <style>
        </style>
    </defs>
    <g id="collection" transform="translate(-1105 -457)">
        <g id="Group_10168" data-name="Group 10168" transform="translate(-20 -43)">
            <path id="Rectangle_4769" fill="none" d="M0 0H32V32H0z" data-name="Rectangle 4769" transform="translate(1125 500)"/>
        </g>
        <g id="folder" transform="translate(1111 464)">
            <g id="_Icon_小olor-2" fill="#474747" stroke="none" stroke-miterlimit="10" data-name=" Icon 小olor">
                <path d="M17.5 16.95h-15c-1.35 0-2.45-1.068-2.45-2.382V2.431C.05 1.118 1.15.05 2.5.05h4.601c.287 0 .555.127.735.349l2.6 3.179.014.018h7.05c1.35 0 2.45 1.068 2.45 2.382v8.59c0 1.314-1.1 2.382-2.45 2.382zm-15-15c-.303 0-.55.216-.55.48v12.138c0 .266.247.482.55.482h15c.303 0 .55-.216.55-.482v-8.59c0-.266-.247-.482-.55-.482H10c-.286 0-.554-.128-.735-.35l-2.6-3.178-.016-.018H2.5z"/>
                <path fill="#fff" d="M17.5 16.9c1.323 0 2.4-1.046 2.4-2.332v-8.59c0-1.286-1.077-2.332-2.4-2.332H10.427l-.03-.037L7.797.43C7.627.22 7.373.1 7.101.1h-4.6C1.176.1.1 1.146.1 2.43v12.138c0 1.286 1.077 2.332 2.4 2.332h15m-15-15h4.173l.03.036 2.6 3.179c.172.21.426.33.697.33h7.5c.33 0 .6.24.6.533v8.59c0 .294-.27.532-.6.532h-15c-.33 0-.6-.238-.6-.532V2.431c0-.293.27-.531.6-.531m15 15.1h-15C1.122 17 0 15.91 0 14.568V2.431C0 1.09 1.122 0 2.5 0h4.601c.302 0 .584.134.774.367l2.6 3.179H17.5c1.378 0 2.5 1.09 2.5 2.432v8.59C20 15.91 18.878 17 17.5 17zM2.5 2c-.276 0-.5.193-.5.43v12.138c0 .239.224.432.5.432h15c.276 0 .5-.193.5-.432v-8.59c0-.238-.224-.432-.5-.432H10c-.301 0-.584-.134-.774-.368L6.626 2H2.5z"/>
            </g>
        </g>
    </g>
</svg>
