<svg xmlns="http://www.w3.org/2000/svg" width="18" height="20" viewBox="0 0 18 20">
    <defs>
        <clipPath id="clip-path">
            <path id="_Icon_小olor" d="M15 20H3a3 3 0 0 1-3-3V5a3 3 0 0 1 3-3h1V1a1 1 0 0 1 2 0v1h6V1a1 1 0 0 1 2 0v1h1a3 3 0 0 1 3 3v12a3 3 0 0 1-3 3zM2 11v6a1 1 0 0 0 1 1h12a1 1 0 0 0 1-1v-6zm1-7a1 1 0 0 0-1 1v4h14V5a1 1 0 0 0-1-1h-1v1a1 1 0 0 1-2 0V4H6v1a1 1 0 0 1-2 0V4zm10 11H9a1 1 0 0 1 0-2h4a1 1 0 1 1 0 2zm-8 0a1 1 0 1 1 1-1 1 1 0 0 1-1 1z" class="cls-1" data-name=" Icon 小olor" transform="translate(3 2)"/>
        </clipPath>
        <style>
            .cls-1{fill:#002e5e}
        </style>
    </defs>
    <g id="dates" transform="translate(109 409.5)">
        <g id="calendar" transform="translate(-109 -409.5)">
            <path id="_Icon_小olor-2" d="M15 20H3a3 3 0 0 1-3-3V5a3 3 0 0 1 3-3h1V1a1 1 0 0 1 2 0v1h6V1a1 1 0 0 1 2 0v1h1a3 3 0 0 1 3 3v12a3 3 0 0 1-3 3zM2 11v6a1 1 0 0 0 1 1h12a1 1 0 0 0 1-1v-6zm1-7a1 1 0 0 0-1 1v4h14V5a1 1 0 0 0-1-1h-1v1a1 1 0 0 1-2 0V4H6v1a1 1 0 0 1-2 0V4zm10 11H9a1 1 0 0 1 0-2h4a1 1 0 1 1 0 2z" class="cls-1" data-name=" Icon 小olor"/>
        </g>
    </g>
</svg>
