<svg xmlns="http://www.w3.org/2000/svg" width="20" height="20" viewBox="0 0 20 20">
    <g>
        <path fill="#adafb3" d="M329.638 393.177a7.916 7.916 0 1 0-7.916 7.917 7.952 7.952 0 0 0 3.548-.84l-.587-1.015a6.746 6.746 0 1 1 3.779-6.062v.912a1.5 1.5 0 0 1-.352 1.087 1.534 1.534 0 0 1-1.046.55l-.092.006a1.516 1.516 0 0 1-1.526-1.507V390.5h-1.16l-.131-.115a3.728 3.728 0 1 0 .09 5.517l.358-.335.313.378a2.655 2.655 0 0 0 2.04.964 2.715 2.715 0 0 0 2.68-2.745zm-7.917 2.555a2.555 2.555 0 1 1 2.555-2.555 2.559 2.559 0 0 1-2.555 2.556z" transform="translate(-1368 -467) translate(1056.694 83.407)"/>
        <path fill="none" d="M0 0H20V20H0z" transform="translate(-1368 -467) translate(1368 467)"/>
    </g>
</svg>
