<svg xmlns="http://www.w3.org/2000/svg" width="9.081" height="16" viewBox="0 0 9.081 16">
    <path fill="#212224" d="M6.964 3.96c.022-.025.124-.105.525-.105h1.316a.777.777 0 0 0 .776-.776v-2.3A.777.777 0 0 0 8.806 0H6.852a4.021 4.021 0 0 0-2.965 1.15 4.222 4.222 0 0 0-1.116 3.026v1.24H1.276a.777.777 0 0 0-.776.776v2.476a.777.777 0 0 0 .776.776h1.495v5.779a.777.777 0 0 0 .776.777h2.562a.777.777 0 0 0 .776-.776v-5.78h1.827a.777.777 0 0 0 .776-.776V6.192a.779.779 0 0 0-.4-.679.789.789 0 0 0-.384-.1H6.885v-.98c0-.319.043-.435.079-.476zm0 0" transform="translate(-.5)"/>
</svg>
