<svg xmlns="http://www.w3.org/2000/svg" width="16" height="14.856" viewBox="0 0 16 14.856">
    <path id="prefix__Filter" fill="#141414" fill-rule="evenodd" d="M695.571 1335.666h1.029a2.093 2.093 0 0 0 4.028 0h9.794a.571.571 0 1 0 0-1.143h-9.795a2.093 2.093 0 0 0-4.028 0h-1.033a.571.571 0 1 0 0 1.143zm3.047-1.524a.952.952 0 1 1-.952.952.952.952 0 0 1 .953-.951zm11.808 5.714h-5.478a2.092 2.092 0 0 0-3.9 0h-5.478a.571.571 0 1 0 0 1.143h5.371a2.093 2.093 0 0 0 4.117 0h5.371a.571.571 0 1 0 0-1.143zm-7.426 1.715a.952.952 0 1 1 .952-.952.952.952 0 0 1-.952.952zm7.428 3.619h-1.033a2.093 2.093 0 0 0-4.028 0h-9.794a.571.571 0 1 0 0 1.143h9.794a2.093 2.093 0 0 0 4.028 0h1.033a.571.571 0 0 0 0-1.143zm-3.047 1.524a.952.952 0 1 1 .952-.952.952.952 0 0 1-.953.951z" transform="translate(-695 -1333)"/>
</svg>
