<svg xmlns="http://www.w3.org/2000/svg" width="61" height="60" viewBox="0 0 61 60">
    <defs>
        <style>
            .cls-1{fill:#089df2}
        </style>
    </defs>
    <g id="logo" transform="translate(-936 -289)">
        <g id="Group_5046" data-name="Group 5046" transform="translate(810 -60)">
            <g id="image-gallery" transform="translate(126 361)">
                <g id="Group_5044" data-name="Group 5044">
                    <path id="Path_9049" d="M53.534.05H16.713a5.6 5.6 0 0 0-5.6 5.579v36.82a5.613 5.613 0 0 0 5.6 5.6h36.821a5.6 5.6 0 0 0 5.579-5.6V5.631A5.578 5.578 0 0 0 53.534.05zm-.758 39.307a1.737 1.737 0 0 1-1.543.9H19.684A1.732 1.732 0 0 1 18 38.022l4.513-14.928a2.69 2.69 0 0 1 4.768-.777l6.319 8.865a2.688 2.688 0 0 0 3.7.667l5.812-3.949a2.691 2.691 0 0 1 3.764.756l5.824 8.917a1.736 1.736 0 0 1 .076 1.784z" class="cls-1" data-name="Path 9049" transform="translate(-11.113 -.05)"/>
                </g>
            </g>
            <circle id="Ellipse_379" cx="4" cy="4" r="4" class="cls-1" data-name="Ellipse 379" transform="translate(136.667 369)"/>
        </g>
        <g id="Union_14" fill="#089df2" stroke="none" data-name="Union 14">
            <path d="M8124-2780H8116v-8h-7.998v-8h7.998v-8H8124v8h8v8h-8v8z" transform="translate(-7137 3095)"/>
            <path fill="#f7f7f7" d="M8122-2782v-8h8v-4h-8v-8H8118v8h-7.998v4h7.998v8H8122m4 4H8114v-8h-7.998v-12h7.998v-8H8126v8h8v12h-8v8z" transform="translate(-7137 3095)"/>
        </g>
    </g>
</svg>
