<svg xmlns="http://www.w3.org/2000/svg" width="32" height="30.999" viewBox="0 0 32 30.999">
    <defs>
        <style>
            .cls-6{fill:#ffc143}
        </style>
    </defs>
    <g id="gift" transform="translate(-976 -516)">
        <g id="gift_1_" transform="translate(976 516)">
            <path id="Path_20063" fill="#926bf2" d="M5.01 129.245H.47a.47.47 0 0 0-.47.47V152.2a.47.47 0 0 0 .47.47h4.54z" transform="translate(0 -121.667)"/>
            <path id="Path_20064" fill="#b191ff" d="M98.63 152.19v-22.475a.47.47 0 0 0-.47-.47h-18v23.422h18.001a.47.47 0 0 0 .47-.47l-.001-.007z" transform="translate(-75.146 -121.667)"/>
            <path id="Path_20065" fill="#9370eb" d="M340.519 152.19v-22.475a.47.47 0 0 0-.47-.47h-1.879a.47.47 0 0 1 .47.47V152.197a.47.47 0 0 1-.47.47h1.879a.47.47 0 0 0 .47-.47v-.007z" transform="translate(-317.034 -121.667)"/>
            <path id="Path_20066" fill="#2d3034" d="M80.156 15.582h.944v-3.35a3.288 3.288 0 0 1 6.576 0v3.35h.939v-3.35a4.227 4.227 0 1 0-8.454 0z" transform="translate(-75.146 -8.004)"/>
            <path id="Path_20068" fill="#ffd367" d="M253.21 283.246h-16.282a.47.47 0 0 1-.47-.47v-3.757a.47.47 0 0 1 .47-.47h16.282a.47.47 0 0 1 .47.47v3.757a.47.47 0 0 1-.47.47z" transform="translate(-221.679 -261.64)"/>
            <g id="Group_10566" transform="translate(16 16.909)">
                <path id="Path_20069" d="M476.3 278.55h-1.879a.47.47 0 0 1 .47.47v3.757a.47.47 0 0 1-.47.47h1.879a.47.47 0 0 0 .47-.47v-3.757a.47.47 0 0 0-.47-.47z" class="cls-6" transform="translate(-460.771 -278.55)"/>
                <path id="Path_20070" d="M256.5 353.7v8.924a.47.47 0 0 0 .47.47h13.777a.47.47 0 0 0 .47-.47V353.7z" class="cls-6" transform="translate(-256.497 -349.001)"/>
            </g>
            <path id="Path_20071" fill="#f3a10a" d="M454.853 353.7v8.924a.47.47 0 0 1-.47.47h1.879a.47.47 0 0 0 .47-.47V353.7z" transform="translate(-425.984 -332.092)"/>
            <path id="Rectangle_4907" fill="#f9293e" d="M0 0H4.349V9.394H0z" transform="translate(21.6 21.606)"/>
            <path id="Path_20073" fill="#e52642" d="M382.26 212.792h2.534a2.66 2.66 0 0 0-2.027-4.384 3.423 3.423 0 0 0-3.1 1.9 2.981 2.981 0 0 1 2.593 2.484z" transform="translate(-356.733 -195.885)"/>
            <path id="Path_20074" fill="#f33350" d="M279.663 212.794h.037a2.981 2.981 0 0 1 2.6-2.484 3.423 3.423 0 0 0-3.1-1.9 2.659 2.659 0 0 0-2.027 4.384z" transform="translate(-257.649 -195.885)"/>
            <path id="Path_20075" fill="#6744d1" d="M2.5 129.245H.47a.47.47 0 0 0-.47.47V152.2a.47.47 0 0 0 .47.47H2.5z" transform="translate(0 -121.667)"/>
            <path id="Path_20076" fill="#5c4aac" d="M2.521 469.312h4.54l-2.173-2.173a.468.468 0 0 0-.141-.1l-.014-.007a.469.469 0 0 0-.114-.03.46.46 0 0 0-.063 0h-.012a.474.474 0 0 0-.077.008h-.01a.466.466 0 0 0-.119.043l-.012.007a.471.471 0 0 0-.1.077l-2.036 2.036a.468.468 0 0 0 .331.139z" transform="translate(-2.051 -438.313)"/>
            <path id="Path_20090" fill="#ff4458" d="M330.979 241.445c0-1.643-.974-2.975-2.174-2.975s-2.174 1.332-2.174 2.975V245.672h4.349v-4.226z" transform="translate(-305.03 -224.065)"/>
        </g>
        <circle id="Ellipse_468" cx="1.143" cy="1.143" r="1.143" fill="#323c3c" transform="translate(985.314 526.286)"/>
        <circle id="Ellipse_469" cx="1.143" cy="1.143" r="1.143" fill="#343434" transform="translate(992.857 526.286)"/>
        <path id="Path_20091" fill="#404751" d="M168.776 12.23a4.227 4.227 0 0 0-8.454 0v6.885a.47.47 0 1 0 .939 0V12.23a3.288 3.288 0 0 1 6.576 0v6.889a.47.47 0 1 0 .939 0v-6.886-.003z" transform="translate(825.698 507.994)"/>
    </g>
</svg>
