<svg xmlns="http://www.w3.org/2000/svg" width="16.5" height="19.868" viewBox="0 0 16.5 19.868">
    <path id="prefix__hand_1_" fill="#fff" stroke="#000" stroke-width="0.5px" d="M15.069 7.158a1.264 1.264 0 0 0-1.263 1.263v1.474a.211.211 0 0 1-.421 0V7.579a1.263 1.263 0 0 0-2.526 0v2.316a.211.211 0 0 1-.421 0V6.737a1.263 1.263 0 1 0-2.526 0v3.158a.21.21 0 0 1-.421 0V1.263a1.263 1.263 0 1 0-2.526 0v9.847l-2.71-1.662a1.223 1.223 0 0 0-.655-.185 1.261 1.261 0 0 0-1.268 1.263 1.236 1.236 0 0 0 .194.674l3.881 6.525a3.368 3.368 0 0 0 2.9 1.646h5.663A3.369 3.369 0 0 0 16.332 16V8.421a1.264 1.264 0 0 0-1.263-1.263zm0 0" data-name="hand (1)" transform="translate(-.082 .25)"/>
</svg>
