<svg xmlns="http://www.w3.org/2000/svg" width="18" height="18" viewBox="0 0 18 18">
    <defs>
        <clipPath id="clip-path">
            <path id="_Icon_小olor" d="M2.6 18A2.6 2.6 0 0 1 0 15.4V2.6A2.6 2.6 0 0 1 2.6 0h9.567a1 1 0 1 1 0 2H2.6a.6.6 0 0 0-.6.6v12.8a.6.6 0 0 0 .6.6h12.8a.6.6 0 0 0 .6-.6V9.833a1 1 0 1 1 2 0V15.4a2.6 2.6 0 0 1-2.6 2.6zm6.62-6a1 1 0 0 1-.72-.31L6.277 9.36a1 1 0 1 1 1.447-1.381l1.5 1.578L15.282 3.3a1 1 0 0 1 1.436 1.4l-6.777 7a1 1 0 0 1-.718.3z" class="cls-1" data-name=" Icon 小olor" transform="translate(3 3)"/>
        </clipPath>
        <style>
            .cls-1{fill:#002e5e}
        </style>
    </defs>
    <g id="info" transform="translate(733 408.5)">
        <g id="checkmark-square-2" transform="translate(-733 -408.5)">
            <path id="_Icon_小olor-2" d="M2.6 18A2.6 2.6 0 0 1 0 15.4V2.6A2.6 2.6 0 0 1 2.6 0h9.567a1 1 0 1 1 0 2H2.6a.6.6 0 0 0-.6.6v12.8a.6.6 0 0 0 .6.6h12.8a.6.6 0 0 0 .6-.6V9.833a1 1 0 1 1 2 0V15.4a2.6 2.6 0 0 1-2.6 2.6zm6.62-6a1 1 0 0 1-.72-.31L6.277 9.36a1 1 0 1 1 1.447-1.381l1.5 1.578L15.282 3.3a1 1 0 0 1 1.436 1.4l-6.777 7a1 1 0 0 1-.718.3z" class="cls-1" data-name=" Icon 小olor"/>
        </g>
    </g>
</svg>
