<svg xmlns="http://www.w3.org/2000/svg" width="16" height="16" viewBox="0 0 16 16">
    <defs>
        <style>
            .cls-1{fill:#ec008c}
        </style>
    </defs>
    <g id="instagram" transform="translate(-561 -4621)">
        <g id="instagram-2" transform="translate(561 4621)">
            <path id="instagram-3" d="M11.584 0H4.415A4.42 4.42 0 0 0 0 4.415v7.169A4.42 4.42 0 0 0 4.415 16h7.169A4.42 4.42 0 0 0 16 11.585v-7.17A4.42 4.42 0 0 0 11.584 0zm3 11.585a3 3 0 0 1-3 3H4.415a3 3 0 0 1-3-3v-7.17a3 3 0 0 1 3-3h7.169a3 3 0 0 1 3 3v7.169z" class="cls-1"/>
            <path id="Path_8741" d="M45.091 40.97a4.123 4.123 0 1 0 4.123 4.123 4.127 4.127 0 0 0-4.123-4.123zm0 6.826a2.7 2.7 0 1 1 2.7-2.7 2.706 2.706 0 0 1-2.7 2.704z" class="cls-1" transform="translate(-37.091 -37.092)"/>
            <path id="Path_8742" d="M119.962 28.251a1.04 1.04 0 1 0 .736.3 1.045 1.045 0 0 0-.736-.3z" class="cls-1" transform="translate(-107.666 -25.578)"/>
        </g>
    </g>
</svg>
