<svg xmlns="http://www.w3.org/2000/svg" width="12" height="12" viewBox="0 0 12 12">
    <defs>
        <style>
            .cls-1{fill:#adafb3}
        </style>
    </defs>
    <g id="instagram" transform="translate(-561 -4621)">
        <g id="instagram-2" transform="translate(561 4621)">
            <path id="instagram-3" d="M8.688 0H3.311A3.315 3.315 0 0 0 0 3.312v5.376A3.315 3.315 0 0 0 3.311 12h5.377A3.315 3.315 0 0 0 12 8.688V3.312A3.315 3.315 0 0 0 8.688 0zm2.247 8.688a2.249 2.249 0 0 1-2.247 2.247H3.311a2.249 2.249 0 0 1-2.246-2.247V3.312a2.249 2.249 0 0 1 2.246-2.247h5.377a2.249 2.249 0 0 1 2.247 2.247v5.376z" class="cls-1"/>
            <path id="Path_8741" d="M44.06 40.97a3.092 3.092 0 1 0 3.092 3.092 3.1 3.1 0 0 0-3.092-3.092zm0 5.119a2.027 2.027 0 1 1 2.027-2.027 2.03 2.03 0 0 1-2.027 2.027z" class="cls-1" transform="translate(-38.06 -38.062)"/>
            <path id="Path_8742" d="M119.7 28.251a.78.78 0 1 0 .552.229.784.784 0 0 0-.552-.229z" class="cls-1" transform="translate(-110.48 -26.246)"/>
        </g>
    </g>
</svg>
