<svg xmlns="http://www.w3.org/2000/svg" width="28" height="28" viewBox="0 0 28 28">
    <g id="liked_selected" transform="translate(-682 -4011)">
        <path id="Rectangle_4890" fill="none" d="M0 0H28V28H0z" data-name="Rectangle 4890" transform="translate(682 4011)"/>
        <path id="Path_20054" fill="#089df2" stroke="#fff" stroke-width="0.3px" d="M224.74 414.083a5.671 5.671 0 0 0-8.36 0l-1.3 1.387-.263.279-.262-.279-1.3-1.388a5.671 5.671 0 0 0-8.359 0 6.632 6.632 0 0 0 0 8.958l9.339 9.942a.791.791 0 0 0 1.175 0l9.339-9.944a6.635 6.635 0 0 0-.009-8.955zm-1.176 7.651l-8.489 9.036-.262.28-.263-.28-8.486-9.036a4.7 4.7 0 0 1 0-6.34 4.085 4.085 0 0 1 6.008 0l2.155 2.3a.823.823 0 0 0 1.176 0l2.155-2.294a4.172 4.172 0 0 1 6.008 0 4.7 4.7 0 0 1-.002 6.334z" data-name="Path 20054" transform="translate(481.187 3602.255)"/>
    </g>
</svg>
