<svg xmlns="http://www.w3.org/2000/svg" width="30.7" height="30.7" viewBox="0 0 30.7 30.7">
    <g id="like" transform="translate(-1542.65 -805.65)">
        <g id="_Icon_Сolor" fill="#fff" stroke="none" stroke-miterlimit="10" data-name="🎨 Icon Сolor">
            <path d="M10 17.85c-.223 0-.44-.096-.598-.264L1.636 9.348c-1.983-2.103-1.983-5.525 0-7.628C2.591.708 3.864.15 5.221.15c1.357 0 2.63.558 3.585 1.57L9.89 2.87l.11.116.108-.116 1.085-1.149C12.148.708 13.422.15 14.78.15c1.356 0 2.63.558 3.583 1.57 1.983 2.102 1.983 5.525.001 7.628l-7.766 8.238c-.16.17-.373.264-.599.264zM5.22 1.967c-.906 0-1.754.371-2.388 1.044-1.311 1.391-1.31 3.656.001 5.048l7.057 7.487.11.116.108-.116 7.06-7.487c1.311-1.393 1.311-3.657 0-5.048-.606-.642-1.477-1.01-2.389-1.01-.912 0-1.783.368-2.39 1.01l-1.79 1.9c-.152.16-.37.253-.6.253-.23 0-.447-.092-.598-.252L7.61 3.01c-.635-.672-1.484-1.043-2.39-1.043z" transform="translate(1548 812)"/>
            <path fill="#fff" d="M10 17.7c.183 0 .357-.077.49-.216l7.765-8.239c1.929-2.047 1.928-5.376 0-7.422C17.328.84 16.094.3 14.78.3c-1.316 0-2.551.541-3.478 1.524l-1.085 1.15-.218.23-.218-.23-1.084-1.151C7.77.84 6.537.3 5.22.3 3.906.3 2.67.84 1.745 1.823c-1.929 2.046-1.929 5.376 0 7.422l7.767 8.238c.129.138.306.217.487.217M5.221 1.817c.947 0 1.834.387 2.498 1.09L9.51 4.81c.122.13.3.205.488.205.189 0 .367-.075.49-.205l1.792-1.9c.634-.673 1.545-1.059 2.498-1.059.954 0 1.864.386 2.497 1.058 1.366 1.448 1.366 3.804 0 5.254l-7.058 7.487-.219.232-.218-.232-7.057-7.487c-1.365-1.45-1.366-3.806-.001-5.253.662-.704 1.55-1.092 2.498-1.092M9.999 18c-.263 0-.52-.114-.706-.312L1.527 9.451c-2.036-2.16-2.036-5.674 0-7.834C2.51.574 3.822 0 5.22 0c1.4 0 2.711.574 3.694 1.617l1.084 1.15 1.085-1.149C12.068.575 13.38 0 14.78 0c1.398 0 2.71.574 3.692 1.617 2.036 2.16 2.037 5.674.001 7.834l-7.766 8.238c-.189.2-.44.311-.708.311zM5.221 2.117c-.865 0-1.674.354-2.28.997-1.258 1.334-1.257 3.506.001 4.842L10 15.443l7.059-7.487c1.259-1.336 1.259-3.508 0-4.842-.577-.613-1.408-.964-2.279-.964-.87 0-1.702.351-2.28.964l-1.792 1.9c-.179.19-.437.3-.708.3-.27 0-.528-.11-.707-.3l-1.791-1.9c-.607-.643-1.417-.997-2.28-.997z" transform="translate(1548 812)"/>
        </g>
    </g>
</svg>
