<svg xmlns="http://www.w3.org/2000/svg" width="12" height="11.467" viewBox="0 0 12 11.467">
    <g>
        <path fill="#adafb3" d="M12 16.588v4.436H9.428v-4.139c0-1.04-.372-1.749-1.3-1.749a1.407 1.407 0 0 0-1.32.941 1.76 1.76 0 0 0-.085.627v4.321H4.147s.035-7.011 0-7.737H6.72v1.1l-.017.025h.017v-.025a2.554 2.554 0 0 1 2.318-1.278C10.731 13.106 12 14.212 12 16.588zM1.456 9.558a1.341 1.341 0 1 0-.034 2.674h.017a1.341 1.341 0 1 0 .017-2.674zM.153 21.025h2.572v-7.737H.153z" transform="translate(-451 -4623) translate(451 4613.442)"/>
    </g>
</svg>
