<svg xmlns="http://www.w3.org/2000/svg" width="15" height="14.333" viewBox="0 0 15 14.333">
    <g id="prefix__linkedin" transform="translate(-451 -4623)">
        <path id="prefix__linkedIn-2" fill="#212224" d="M15 18.346v5.546h-3.215v-5.175c0-1.3-.465-2.187-1.629-2.187a1.759 1.759 0 0 0-1.65 1.176 2.2 2.2 0 0 0-.107.784v5.4H5.184s.043-8.763 0-9.671H8.4v1.371l-.021.031H8.4v-.031a3.193 3.193 0 0 1 2.9-1.6c2.114.003 3.7 1.385 3.7 4.356zM1.82 9.558a1.676 1.676 0 1 0-.043 3.342H1.8a1.676 1.676 0 1 0 .02-3.342zM.191 23.891h3.215V14.22H.191z" data-name="linkedIn" transform="translate(451 4613.442)"/>
    </g>
</svg>
