<svg xmlns="http://www.w3.org/2000/svg" width="240" height="62.05" viewBox="0 0 240 62.05">
    <defs>
        <style>
            .prefix__cls-5{fill:#6d6f72}.prefix__cls-6{fill:#00234c}
        </style>
    </defs>
    <g id="prefix__logo" transform="translate(-805.231 -100.612)">
        <g id="prefix__Group_9901" data-name="Group 9901" transform="translate(982.883 102)">
            <g id="prefix__Group_9898" data-name="Group 9898">
                <g id="prefix__Group_9897" data-name="Group 9897">
                    <path id="prefix__Path_9255" fill="#818285" d="M434.136 309.808l-29.394 16.539-29.394-16.539 29.394-7.994z" data-name="Path 9255" transform="translate(-375.349 -268.606)"/>
                    <path id="prefix__Path_9256" fill="#ec008c" d="M421.14 260.823v28.769l27.479 7.473-27.479 15.461v4l31.04-18.907z" data-name="Path 9256" transform="translate(-389.832 -255.862)"/>
                    <path id="prefix__Path_9257" fill="#640036" d="M421.14 302.571V325.5l27.479-15.461z" data-name="Path 9257" transform="translate(-389.832 -268.841)"/>
                    <path id="prefix__Union_6" fill="#002e5e" stroke="rgba(0,0,0,0)" stroke-miterlimit="10" d="M7.2 39.234l21.881-5.951v18.394zM0 35.139L29.082 0v33.283L7.2 39.234z" data-name="Union 6" transform="translate(.039)"/>
                </g>
            </g>
        </g>
        <g id="prefix__Group_9964" data-name="Group 9964" transform="translate(805.231 114.989)">
            <path id="prefix__Rectangle_4663" d="M0 0H1.438V21.778H0z" class="prefix__cls-5" data-name="Rectangle 4663" transform="translate(81.705 10.103)"/>
            <path id="prefix__Path_9260" d="M575.741 251.524a1.439 1.439 0 0 0-1.976 0 1.441 1.441 0 0 0 0 1.952 1.436 1.436 0 0 0 1.976 0 1.439 1.439 0 0 0 0-1.952" class="prefix__cls-5" data-name="Path 9260" transform="translate(-492.329 -246.695)"/>
            <path id="prefix__Path_9261" d="M500.359 259.7c-.245-.015-.489-.022-.724-.022a8.143 8.143 0 0 0-4.548 1.274 8.684 8.684 0 0 0-3.03 3.435l-.573 1.147v-5.8h-1.3V281.5h1.438v-15.48l.046-.074a11.36 11.36 0 0 1 3.653-3.79 9.309 9.309 0 0 1 4.918-1.275h.441v-1.143a2.4 2.4 0 0 0-.32-.04" class="prefix__cls-5" data-name="Path 9261" transform="translate(-463.839 -249.621)"/>
            <path id="prefix__Path_9262" d="M524.094 276.875a10.894 10.894 0 0 1-1.437.377 10.142 10.142 0 0 1-1.891.168c-1.724 0-2.892-.552-3.472-1.639a9.909 9.909 0 0 1-.825-4.534v-13.29h7.757V256.8h-7.757v-5.666h-1.437v5.666h-4.042v1.159h4.041v13.417a14.15 14.15 0 0 0 .294 2.995 6.266 6.266 0 0 0 .929 2.255 4.383 4.383 0 0 0 1.674 1.432 5.965 5.965 0 0 0 2.652.524 10.148 10.148 0 0 0 2.119-.232 11.682 11.682 0 0 0 1.541-.424z" class="prefix__cls-5" data-name="Path 9262" transform="translate(-470.964 -246.695)"/>
            <path id="prefix__Rectangle_4665" d="M0 0H1.437V21.778H0z" class="prefix__cls-5" data-name="Rectangle 4665" transform="translate(56.464 10.103)"/>
            <path id="prefix__Path_9263" d="M558.62 269.07a9.28 9.28 0 0 1-1.777 3.216 8.183 8.183 0 0 1-2.916 2.147 9.642 9.642 0 0 1-3.932.769 15.144 15.144 0 0 1-2.773-.215 15.621 15.621 0 0 1-2.2-.592l-.2-.071V258.04l.105-.091a13.093 13.093 0 0 1 3.09-1.973 8.509 8.509 0 0 1 3.564-.794 7.244 7.244 0 0 1 3.44.779 6.817 6.817 0 0 1 2.405 2.138 9.262 9.262 0 0 1 1.37 3.145 16.4 16.4 0 0 1 .426 3.809 13.006 13.006 0 0 1-.6 4.018m1.464-8.372a10.678 10.678 0 0 0-1.67-3.5 7.943 7.943 0 0 0-2.73-2.326 8.117 8.117 0 0 0-3.784-.848 8.912 8.912 0 0 0-3.8.784 10.277 10.277 0 0 0-2.776 1.825l-.512.492v-12.741h-1.437v30.774a17.866 17.866 0 0 0 6.617 1.2 10.991 10.991 0 0 0 4.475-.88 9.948 9.948 0 0 0 3.359-2.388 10.356 10.356 0 0 0 2.1-3.566 13.482 13.482 0 0 0 .726-4.474 16.139 16.139 0 0 0-.569-4.354" class="prefix__cls-5" data-name="Path 9263" transform="translate(-482.054 -244.385)"/>
            <path id="prefix__Path_9264" d="M594.274 276.875a10.9 10.9 0 0 1-1.437.377 10.142 10.142 0 0 1-1.891.168c-1.724 0-2.892-.552-3.472-1.639a9.908 9.908 0 0 1-.825-4.534v-13.29h7.757V256.8h-7.757v-5.666h-1.438v5.666h-4.041v1.159h4.041v13.417a14.148 14.148 0 0 0 .3 2.995 6.263 6.263 0 0 0 .929 2.255 4.383 4.383 0 0 0 1.674 1.432 5.965 5.965 0 0 0 2.651.524 10.15 10.15 0 0 0 2.121-.232 11.617 11.617 0 0 0 1.541-.424z" class="prefix__cls-5" data-name="Path 9264" transform="translate(-494.995 -246.695)"/>
            <path id="prefix__Rectangle_4667" d="M0 0H1.438V21.778H0z" class="prefix__cls-5" data-name="Rectangle 4667" transform="translate(104.158 10.103)"/>
            <path id="prefix__Path_9265" d="M633.246 274.1a9.494 9.494 0 0 1-1.56 3.166 7.8 7.8 0 0 1-12.324 0 9.477 9.477 0 0 1-1.56-3.166 14.647 14.647 0 0 1 0-7.761 9.473 9.473 0 0 1 1.56-3.19 7.488 7.488 0 0 1 6.162-2.951 7.483 7.483 0 0 1 6.162 2.951 9.489 9.489 0 0 1 1.561 3.19 14.675 14.675 0 0 1 0 7.761m1.347-8.1a10.871 10.871 0 0 0-1.829-3.57 8.936 8.936 0 0 0-3.033-2.472 10.081 10.081 0 0 0-8.412 0 8.936 8.936 0 0 0-3.034 2.472 10.881 10.881 0 0 0-1.829 3.57 14.724 14.724 0 0 0 0 8.417 10.877 10.877 0 0 0 1.829 3.57 8.925 8.925 0 0 0 3.034 2.471 10.081 10.081 0 0 0 8.412 0 8.924 8.924 0 0 0 3.033-2.471 10.89 10.89 0 0 0 1.829-3.57 14.724 14.724 0 0 0 0-8.417" class="prefix__cls-5" data-name="Path 9265" transform="translate(-506.867 -249.403)"/>
            <path id="prefix__Path_9266" d="M667.342 265.4a10.479 10.479 0 0 0-1.331-3.319 6.819 6.819 0 0 0-2.267-2.225 6.329 6.329 0 0 0-3.282-.815 8.761 8.761 0 0 0-4.155.986 9.673 9.673 0 0 0-3.176 2.7l-.543.712v-3.937h-1.3v21.409l1.438-.79V264.25l.069-.084a13.363 13.363 0 0 1 3.16-2.78 7.34 7.34 0 0 1 3.994-1.186 5.677 5.677 0 0 1 3.064.79A5.747 5.747 0 0 1 665 263.1a9.817 9.817 0 0 1 1.032 3.043 20.907 20.907 0 0 1 .307 3.653v11.491h1.438v-11.819a18.481 18.481 0 0 0-.434-4.067" class="prefix__cls-5" data-name="Path 9266" transform="translate(-519.005 -249.404)"/>
            <path id="prefix__Path_9267" d="M452.4 266.324l7.86-20.405 7.86 20.405zm-1.764 4.545l1.274-3.323h16.649l3.428 8.815h1.467l-12.628-31.977H459.7l-8.5 21.516z" class="prefix__cls-5" data-name="Path 9267" transform="translate(-450.298 -244.385)"/>
            <path id="prefix__Path_9268" d="M459.735 244.385l-8.406 21.287.022.652-.274 1.014-.325 2.874.038.364 1.161-3.03h7.456l.757-1.222h-7.724l7.854-20.389-.559-1.55z" class="prefix__cls-6" data-name="Path 9268" transform="translate(-450.337 -244.385)"/>
            <path id="prefix__Path_9269" d="M554.008 259.049c-.021-.02-.021-.072 0-.154l.957-1.975c.062-.124.124-.185.185-.185a5.986 5.986 0 0 1 1.3.771q1.141.772 1.142.926a6.054 6.054 0 0 1-.988 2.129c-.082.145-.165.176-.247.093q-.586-.432-1.157-.819t-1.188-.786m3.51.93c.062-.123.123-.185.185-.185a6.027 6.027 0 0 1 1.3.772 4.675 4.675 0 0 1 1.172.926 5.666 5.666 0 0 1-1.018 2.13q-.124.185-.247.093c-.351-.247-.709-.5-1.08-.757s-.761-.519-1.172-.786a11.529 11.529 0 0 1-.834 1.605c-.061.144-.143.185-.247.124q-.556-.432-1.142-.834t-1.2-.8q-.03-.03 0-.154l.987-1.975c.062-.123.124-.185.185-.185a5.522 5.522 0 0 1 1.111.648 9.262 9.262 0 0 1 1.234.926z" class="prefix__cls-6" data-name="Path 9269" transform="translate(-485.422 -248.613)"/>
            <path id="prefix__Path_9270" d="M572.065 284.152q.093-.185.185-.185a7.311 7.311 0 0 1 1.3.8 5.824 5.824 0 0 1 1.172.895 5.676 5.676 0 0 1-1.018 2.13q-.123.185-.247.092c-.351-.247-.71-.5-1.08-.756s-.762-.52-1.173-.786a11.409 11.409 0 0 1-.834 1.605c-.062.143-.143.185-.247.124q-.556-.433-1.142-.834t-1.2-.8c-.041-.02-.041-.082 0-.185l.988-1.944c.062-.124.124-.185.185-.185a5.506 5.506 0 0 1 1.111.648 7.8 7.8 0 0 1 1.235.957z" class="prefix__cls-6" data-name="Path 9270" transform="translate(-490.397 -257.939)"/>
            <path id="prefix__Path_9271" d="M582.318 286.43q-.061-.031 0-.185l.988-1.975c.062-.124.124-.185.185-.185a7.225 7.225 0 0 1 1.3.8q1.141.77 1.142.926a5.788 5.788 0 0 1-1.019 2.1c-.083.143-.165.185-.247.124a19.508 19.508 0 0 0-2.346-1.606" class="prefix__cls-6" data-name="Path 9271" transform="translate(-495.378 -257.979)"/>
            <path id="prefix__Path_9272" d="M476.819 275.919q-.617-.247-1.1-.494a8.828 8.828 0 0 1-.849-.493 8.187 8.187 0 0 1-1.574 5.432 20.833 20.833 0 0 1-5.833 4.475 18.805 18.805 0 0 1-9.136 2.716q-5.648 0-7.778-5.525a7.764 7.764 0 0 1-.432-2.747 14.621 14.621 0 0 1 .185-2.284 11.5 11.5 0 0 1 .74-2.932c.124-.268.112-.383.195-.383.062 0 .272.133.176.476l-.37 1.574a9.748 9.748 0 0 0-.308 2.038 6.576 6.576 0 0 0 1.546 4.228 7.336 7.336 0 0 0 6.019 2.562 19.6 19.6 0 0 0 7.408-1.636 27.881 27.881 0 0 0 5.71-3.241q2.315-1.76 2.315-2.5a12.984 12.984 0 0 0-1.79-5.37 1.662 1.662 0 0 1-.216-.648 7.272 7.272 0 0 1 .185-1.3 3.561 3.561 0 0 1 .37-1.2q.185-.247.278-.247c.061 0 .133.1.216.308a8.965 8.965 0 0 0 1.651 2.516 6.969 6.969 0 0 0 2.392 1.651 1.631 1.631 0 0 1 .432.664 2.717 2.717 0 0 1 .17.849 2.385 2.385 0 0 1-.123.849 1.313 1.313 0 0 1-.479.663" class="prefix__cls-6" data-name="Path 9272" transform="translate(-450.121 -252.615)"/>
            <path id="prefix__Path_9274" d="M552.7 271.384v3.025a3.756 3.756 0 0 1-2.47-.9 4.547 4.547 0 0 1-1.574-2.963 6.322 6.322 0 0 1-1.173 2.932 3.273 3.273 0 0 1-.794.726 1.8 1.8 0 0 1-.965.291 3.472 3.472 0 0 1-1.191-.272c-2.13-.92-1.528-3.817-2.081-5.495q-.155-.37-.277 0-1.3 3.334-3.674 3.333-2.407 0-2.839-3.024c-.041-.185-.074-.278-.093-.278a1.54 1.54 0 0 0-.185.278 8.866 8.866 0 0 1-1.7 1.944 5.509 5.509 0 0 1-3.55 1.574q-3.334 0-3.335-3.364c0-.225-.051-.339-.154-.339a1.627 1.627 0 0 0-.462.185q-10.833 5.462-25 5.463a29.006 29.006 0 0 1-10.463-1.543v-3.025a14.46 14.46 0 0 0 1.806.541 29.689 29.689 0 0 0 2.979.54q1.789.248 3.44.37t3.164.124a64.727 64.727 0 0 0 14.044-1.575 42.012 42.012 0 0 0 10.988-3.827 1.467 1.467 0 0 1 .616-.216c.186 0 .237.164.155.493a2.992 2.992 0 0 0-.186.988 1.868 1.868 0 0 0 .864 1.636 3.778 3.778 0 0 0 2.1.524 5.687 5.687 0 0 0 3.549-1.326c.041-.041.18-.181.417-.416s.56-.582.973-1.035a9.129 9.129 0 0 1 1.234-1.2q.247 0 .093.524a4.337 4.337 0 0 0-.247.926 2.29 2.29 0 0 0 .432 1.174 1.705 1.705 0 0 0 1.512.894q2.469 0 4.229-3.581c.123-.226.268-.339.432-.339.123 0 .185.1.185.308 0 .083-.01.216-.031.4-.089.784-.383 4.317 1.908 5.364a2.294 2.294 0 0 0 1.361.1 1.737 1.737 0 0 0 1.206-1.862 15.624 15.624 0 0 0-.4-2.438q-.248-1.048-.464-1.9t-.431-1.528a5.516 5.516 0 0 1-.217-.679 6.243 6.243 0 0 1 .495-2.747c.123-.289.205-.432.247-.432.082 0 .164.1.246.309a26.32 26.32 0 0 1 1.853 6.759q.493 2.934 1.482 3.889a2.627 2.627 0 0 0 1.944.679" class="prefix__cls-6" data-name="Path 9274" transform="translate(-464.024 -249.646)"/>
            <path id="prefix__Path_9275" d="M594.108 278.475a3.9 3.9 0 0 1-2.16-.617 4.655 4.655 0 0 1-1.39-3.122 6.524 6.524 0 0 1-1.728 2.068 5.821 5.821 0 0 1-3.858 1.574v-3.024a6.524 6.524 0 0 0 4.259-1.354 16.5 16.5 0 0 0 1.358-1.451 8.754 8.754 0 0 1 1.2-1.2c.123 0 .185.1.185.308a.9.9 0 0 1-.062.34 4.469 4.469 0 0 0-.155 1.05 2.273 2.273 0 0 0 2.346 2.411 1.621 1.621 0 0 1 .4.679 2.866 2.866 0 0 1 0 1.666 1.609 1.609 0 0 1-.4.679" class="prefix__cls-6" data-name="Path 9275" transform="translate(-496.297 -253.616)"/>
            <path id="prefix__Path_9276" d="M596.638 284.152q.093-.185.185-.185a7.288 7.288 0 0 1 1.3.8 5.83 5.83 0 0 1 1.173.895 5.68 5.68 0 0 1-1.019 2.13q-.124.185-.247.092-.525-.37-1.08-.756t-1.172-.787a11.579 11.579 0 0 1-.834 1.605q-.092.215-.247.124-.556-.433-1.142-.834t-1.2-.8c-.041-.02-.041-.082 0-.185l.988-1.944c.062-.124.124-.185.185-.185a5.5 5.5 0 0 1 1.111.648 7.835 7.835 0 0 1 1.235.957z" class="prefix__cls-6" data-name="Path 9276" transform="translate(-498.812 -257.939)"/>
            <path id="prefix__Path_9277" d="M629.583 267.926c.062-.123.124-.185.185-.185a7.381 7.381 0 0 1 1.3.8 5.9 5.9 0 0 1 1.173.895 5.671 5.671 0 0 1-1.019 2.13q-.124.185-.247.093-.525-.371-1.08-.756t-1.172-.787a11.518 11.518 0 0 1-.834 1.605c-.061.145-.143.185-.247.124q-.556-.432-1.142-.834t-1.2-.8c-.041-.02-.041-.082 0-.185l.987-1.945c.063-.123.124-.185.185-.185a5.538 5.538 0 0 1 1.111.648 7.832 7.832 0 0 1 1.235.957z" class="prefix__cls-6" data-name="Path 9277" transform="translate(-510.093 -252.382)"/>
            <path id="prefix__Path_9278" d="M609.8 275.805l.094.024.345.086c0-.007 0-.014-.007-.021a1.652 1.652 0 0 0-.412-.643l-.02-.008z" class="prefix__cls-6" data-name="Path 9278" transform="translate(-504.798 -254.951)"/>
            <path id="prefix__Path_9279" d="M641.582 265.277a4.681 4.681 0 0 1-.237 1.416 6.365 6.365 0 0 1-.289.744 3.56 3.56 0 0 1-1.3 1.605 40.018 40.018 0 0 1-4.552 2.006 47 47 0 0 1-5.448 1.636 62.34 62.34 0 0 1-14.088 1.814 27.756 27.756 0 0 1-9.618-1.537 13.451 13.451 0 0 1-4.226-2.412 6.348 6.348 0 0 1-1.173 2.933 2.341 2.341 0 0 1-1.79 1.019v-3.025q2.254 0 2.253-2.007a15.686 15.686 0 0 0-.4-2.438q-.247-1.049-.462-1.9t-.432-1.528a5.621 5.621 0 0 1-.216-.68 6.234 6.234 0 0 1 .494-2.747c.123-.288.205-.431.246-.431.082 0 .165.1.247.308a25.418 25.418 0 0 1 1.8 6.463c.46 2.685 4.688 3.765 5.468 3.959a29.861 29.861 0 0 0 2.978.539q1.79.249 3.442.37 1.231.093 2.386.116a63.523 63.523 0 0 0 11.611-1.227 57.168 57.168 0 0 0 8.55-2.438 13.1 13.1 0 0 0 3.488-1.637q0-.678-1.883-2.962a1.138 1.138 0 0 1-.247-.989c.124-.535.221-.945.293-1.234a4.564 4.564 0 0 1 .139-.495c.165-.349.3-.525.4-.525s.278.135.524.4a7.226 7.226 0 0 1 2.038 4.877" class="prefix__cls-6" data-name="Path 9279" transform="translate(-501.054 -249.646)"/>
            <path id="prefix__Path_9280" d="M678.615 244.385a.832.832 0 0 1 .957.926 2.328 2.328 0 0 1-.216.926 6.726 6.726 0 0 1-.772 1.08q-.432.526-.725.849a6.287 6.287 0 0 0-.447.54q-.556.771-.71.679a3.244 3.244 0 0 1 .463-1.219 8.177 8.177 0 0 1 .8-1.1l.139-.139.247-.247q.17-.17.448-.479a.371.371 0 0 0-.231-.247.881.881 0 0 0-.293-.062 1.011 1.011 0 0 0-.247.063q-.184.062-.339.123a20.976 20.976 0 0 1-3.75 1.435 13.852 13.852 0 0 1-3.658.51 8.828 8.828 0 0 1-1.744-.17 6.258 6.258 0 0 1-1.589-.541 1.587 1.587 0 0 0 .046.355.952.952 0 0 1-.015.448 4.936 4.936 0 0 1-.185.617 2.274 2.274 0 0 1-.37.648q-.155 0-.155-.617a3.985 3.985 0 0 0-.092-.911 3.134 3.134 0 0 0-.262-.71 5.582 5.582 0 0 0-.4-.648q-.232-.324-.509-.694.155-1.08.586-1.08a.938.938 0 0 1 .262.216 1.274 1.274 0 0 0 .293.247 6.474 6.474 0 0 0 2.084 1.034 8.6 8.6 0 0 0 2.392.324 12.5 12.5 0 0 0 3.21-.416 17.127 17.127 0 0 0 3.148-1.188 5.039 5.039 0 0 1 1.635-.556" class="prefix__cls-6" data-name="Path 9280" transform="translate(-523.702 -244.385)"/>
            <path id="prefix__Path_9281" d="M674.045 254.75a9.278 9.278 0 0 1 .8-2.5c.1-.164.164-.247.185-.247.041 0 .113.083.216.247a16.085 16.085 0 0 1 .926 5.833c0 .289.211 3.991.458 7.53q.371 5.278.37 6.05a16.327 16.327 0 0 1-1.05 6.142c-.082.185-.16.345-.231.479a3.406 3.406 0 0 0-.17.355q-.185.339-.246.061a6.484 6.484 0 0 1 .062-1.111c.041-.371.072-.792.093-1.266s.03-1 .03-1.574q0-.742-.463-7.562c-.144-2.284-.34-5.9-.412-7.268s-.108-2.288-.108-2.763a5.652 5.652 0 0 0-.463-2.407" class="prefix__cls-6" data-name="Path 9281" transform="translate(-526.797 -246.993)"/>
            <path id="prefix__Path_9282" d="M466.144 277.754a1.509 1.509 0 0 1-.158.685 2.143 2.143 0 0 1-.409.566 1.849 1.849 0 0 1-.578.4 1.642 1.642 0 0 1-.672.145 1.749 1.749 0 0 1-1.277-.55 1.716 1.716 0 0 1-.539-1.25 1.844 1.844 0 0 1 1.816-1.817 1.663 1.663 0 0 1 .672.145 1.893 1.893 0 0 1 .578.4 2.1 2.1 0 0 1 .409.579 1.591 1.591 0 0 1 .158.7" class="prefix__cls-6" data-name="Path 9282" transform="translate(-454.364 -255.189)"/>
            <path id="prefix__Path_9283" d="M642.9 290.094a3.331 3.331 0 0 1-2.624-1.328 5.161 5.161 0 0 1-1.172-3.4q0-2.778 2.284-7.284c.144-.309.267-.463.37-.463a.178.178 0 0 1 .062.123 18.12 18.12 0 0 1-.988 3.148 13.166 13.166 0 0 0-.988 4.2 2.893 2.893 0 0 0 .556 1.883 1.938 1.938 0 0 0 1.636.771q1.635 0 3.827-2.006.122-.124 1.08-1.158l2.778-3.009q5.309-5.742 9.507-5.741a3.2 3.2 0 0 1 1.126.2 3.317 3.317 0 0 1 .942.525 2.4 2.4 0 0 1 .632.771 2.022 2.022 0 0 1 .232.941 5.115 5.115 0 0 1-.432 2.13c-.083.206-.144.308-.185.308q-.093 0-.278-.308a2.854 2.854 0 0 0-2.624-1.574q-3.24 0-7.346 4.2-1.174 1.3-2.315 2.531l-2.315 2.5a5.587 5.587 0 0 1-3.765 2.037" class="prefix__cls-6" data-name="Path 9283" transform="translate(-514.832 -255.154)"/>
            <path id="prefix__Path_9284" d="M537.356 251.524a1.439 1.439 0 0 0-1.976 0 1.439 1.439 0 0 0 0 1.952 1.436 1.436 0 0 0 1.976 0 1.441 1.441 0 0 0 0-1.952" class="prefix__cls-5" data-name="Path 9284" transform="translate(-479.185 -246.695)"/>
            <path id="prefix__Path_9285" d="M609.885 251.524a1.44 1.44 0 0 0-1.976 0 1.441 1.441 0 0 0 0 1.952 1.436 1.436 0 0 0 1.976 0 1.439 1.439 0 0 0 0-1.952" class="prefix__cls-5" data-name="Path 9285" transform="translate(-504.02 -246.695)"/>
        </g>
    </g>
</svg>
