<svg xmlns="http://www.w3.org/2000/svg" width="24" height="24" viewBox="0 0 24 24">
    <g id="message" transform="translate(-596 -100)">
        <g id="Group_10621" data-name="Group 10621">
            <path id="Rectangle_4953" fill="none" d="M0 0H24V24H0z" data-name="Rectangle 4953" transform="translate(596 100)"/>
        </g>
        <path id="Path_20098" fill="#141414" d="M988.455 463.561a2.365 2.365 0 0 0-2.4-2.325h-12.6a2.366 2.366 0 0 0-2.4 2.325v8.75a2.366 2.366 0 0 0 2.4 2.325h12.6a2.365 2.365 0 0 0 2.4-2.325zm-14.4-1.175h12.321l-.744.542-5.7 4.157-.177.129-.176-.129-5.7-4.157-.744-.542zm13.2 1.394v8.531a1.189 1.189 0 0 1-1.2 1.175h-12.6a1.189 1.189 0 0 1-1.2-1.175v-9.121l.477.347 6.66 4.857a.623.623 0 0 0 .727 0l6.66-4.857.476-.347z" data-name="Path 20098" transform="translate(-371.055 -355.936)"/>
    </g>
</svg>
