<svg xmlns="http://www.w3.org/2000/svg" width="58" height="58" viewBox="0 0 58 58">
    <defs>
        <filter id="prefix__Ellipse_462" width="58" height="58" x="0" y="0" filterUnits="userSpaceOnUse">
            <feOffset dy="3"/>
            <feGaussianBlur result="blur" stdDeviation="3"/>
            <feFlood flood-opacity=".122"/>
            <feComposite in2="blur" operator="in"/>
            <feComposite in="SourceGraphic"/>
        </filter>
    </defs>
    <g id="prefix__next" transform="translate(-1493 -414)">
        <g id="prefix__Group_10461" data-name="Group 10461">
            <g filter="url(#prefix__Ellipse_462)" transform="translate(1493 414)">
                <circle id="prefix__Ellipse_462-2" cx="20" cy="20" r="20" fill="#fff" data-name="Ellipse 462" transform="translate(9 6)"/>
            </g>
            <path id="prefix__Path_20051" fill="#adafb3" d="M305.826 420.757a2.091 2.091 0 0 0-.153-.219l-4.851-5.093a1.175 1.175 0 0 0-1.7 1.62l2.945 3.141h-10.894a1.173 1.173 0 0 0 0 2.347h10.835l-3.138 3.113a1.182 1.182 0 0 0 .78 2.044 1.262 1.262 0 0 0 .843-.326l5.169-5.168a1.234 1.234 0 0 0 .338-.845v-.154a.957.957 0 0 0-.067-.277.731.731 0 0 0-.107-.183z" data-name="Path 20051" transform="translate(1224 18.919)"/>
        </g>
    </g>
</svg>
