<svg xmlns="http://www.w3.org/2000/svg" width="40" height="40" viewBox="0 0 40 40">
    <defs>
        <style>
            .cls-1{stroke:#000}.cls-2{fill:none}.cls-3{stroke:none}
        </style>
    </defs>
    <g id="original" transform="translate(-573 -1081)">
        <g id="Group_10062" data-name="Group 10062" transform="translate(-233 7)">
            <g id="warranty" transform="translate(810 1078)">
                <path id="Path_19899" d="M28.246 16.332a11.914 11.914 0 1 0 11.915 11.914 11.914 11.914 0 0 0-11.915-11.914zm0 22.954a11.04 11.04 0 1 1 11.04-11.04 11.04 11.04 0 0 1-11.04 11.04z" class="cls-1" data-name="Path 19899" transform="translate(-12.247 -12.246)"/>
                <path id="Path_19900" d="M31.491 17.389a2.231 2.231 0 0 0 0-2.806l-.717-.895a1.37 1.37 0 0 1-.246-1.239l.32-1.1a2.258 2.258 0 0 0-1.076-2.6l-1-.55a1.37 1.37 0 0 1-.7-1.05l-.125-1.139a2.231 2.231 0 0 0-1.985-1.985L24.823 3.9a1.369 1.369 0 0 1-1.05-.7l-.55-1a2.231 2.231 0 0 0-2.6-1.076l-1.1.32a1.372 1.372 0 0 1-1.24-.246L17.39.482a2.232 2.232 0 0 0-2.806 0l-.895.717a1.375 1.375 0 0 1-1.239.246l-1.1-.32A2.258 2.258 0 0 0 8.755 2.2l-.55 1a1.37 1.37 0 0 1-1.05.7l-1.139.125a2.231 2.231 0 0 0-1.984 1.991l-.125 1.138A1.369 1.369 0 0 1 3.2 8.2l-1 .55a2.231 2.231 0 0 0-1.076 2.6l.32 1.1a1.372 1.372 0 0 1-.246 1.24l-.717.895a2.231 2.231 0 0 0 0 2.806l.717.895a1.37 1.37 0 0 1 .246 1.239l-.32 1.1a2.258 2.258 0 0 0 1.076 2.6l1 .55a1.37 1.37 0 0 1 .7 1.05l.125 1.139a2.231 2.231 0 0 0 1.992 1.976l1.139.125a1.369 1.369 0 0 1 1.05.7l.55 1a2.231 2.231 0 0 0 2.6 1.076l1.1-.32a1.375 1.375 0 0 1 1.24.246l.895.717a2.231 2.231 0 0 0 2.806 0l.895-.717a1.371 1.371 0 0 1 1.239-.246l1.1.32a2.231 2.231 0 0 0 2.6-1.076l.55-1a1.37 1.37 0 0 1 1.05-.7l1.139-.125a2.231 2.231 0 0 0 1.985-1.985l.125-1.139a1.369 1.369 0 0 1 .7-1.05l1-.55a2.231 2.231 0 0 0 1.076-2.6l-.32-1.1a1.372 1.372 0 0 1 .246-1.24zm-1.4.348a2.248 2.248 0 0 0-.4 2.032l.32 1.1a1.361 1.361 0 0 1-.657 1.584l-1 .55a2.245 2.245 0 0 0-1.154 1.719l-.125 1.139a1.362 1.362 0 0 1-1.211 1.211l-1.139.125A2.245 2.245 0 0 0 23 28.349l-.55 1a1.362 1.362 0 0 1-1.584.657l-1.1-.32a2.246 2.246 0 0 0-2.031.4l-.895.717a1.361 1.361 0 0 1-1.713 0l-.895-.717a2.247 2.247 0 0 0-2.032-.4l-1.1.32a1.363 1.363 0 0 1-1.584-.657l-.55-1A2.244 2.244 0 0 0 7.25 27.2l-1.139-.125A1.362 1.362 0 0 1 4.9 25.86l-.125-1.139A2.246 2.246 0 0 0 3.623 23l-1-.55a1.378 1.378 0 0 1-.657-1.584l.32-1.1a2.247 2.247 0 0 0-.4-2.031l-.717-.895a1.362 1.362 0 0 1 0-1.713l.717-.895a2.248 2.248 0 0 0 .4-2.032l-.32-1.1a1.361 1.361 0 0 1 .657-1.584l1-.55A2.245 2.245 0 0 0 4.776 7.25L4.9 6.111A1.362 1.362 0 0 1 6.114 4.9l1.139-.125a2.246 2.246 0 0 0 1.722-1.152l.55-1a1.379 1.379 0 0 1 1.582-.657l1.1.32a2.246 2.246 0 0 0 2.031-.4l.895-.717a1.361 1.361 0 0 1 1.713 0l.895.717a2.25 2.25 0 0 0 2.032.4l1.1-.32a1.363 1.363 0 0 1 1.584.657l.55 1a2.245 2.245 0 0 0 1.722 1.152l1.139.125a1.362 1.362 0 0 1 1.211 1.211L27.2 7.25a2.245 2.245 0 0 0 1.15 1.722l1 .55a1.378 1.378 0 0 1 .657 1.584l-.32 1.1a2.246 2.246 0 0 0 .4 2.031l.717.895a1.362 1.362 0 0 1 0 1.713z" class="cls-1" data-name="Path 19900" transform="translate(.013 .014)"/>
            </g>
            <g id="Group_10061" data-name="Group 10061" transform="translate(819.715 1089.417)">
                <g id="Rectangle_4730" class="cls-1" data-name="Rectangle 4730">
                    <path d="M0 0H5.714V2.286H0z" class="cls-3" transform="rotate(45 -2.862 3.47)"/>
                    <path d="M0.5 0.5H5.214V1.786H0.5z" class="cls-2" transform="rotate(45 -2.862 3.47)"/>
                </g>
                <g id="Rectangle_4731" class="cls-1" data-name="Rectangle 4731">
                    <path d="M0 0H11.429V2.286H0z" class="cls-3" transform="rotate(-45 11.47 -.099)"/>
                    <path d="M0.5 0.5H10.929V1.786H0.5z" class="cls-2" transform="rotate(-45 11.47 -.099)"/>
                </g>
            </g>
        </g>
        <path id="Rectangle_4900" d="M0 0H40V40H0z" class="cls-2" data-name="Rectangle 4900" transform="translate(573 1081)"/>
    </g>
</svg>
