<svg xmlns="http://www.w3.org/2000/svg" width="58" height="58" viewBox="0 0 58 58">
    <defs>
        <filter id="prefix__Ellipse_462" width="58" height="58" x="0" y="0" filterUnits="userSpaceOnUse">
            <feOffset dy="3"/>
            <feGaussianBlur result="blur" stdDeviation="3"/>
            <feFlood flood-opacity=".122"/>
            <feComposite in2="blur" operator="in"/>
            <feComposite in="SourceGraphic"/>
        </filter>
    </defs>
    <g id="prefix__previous" transform="translate(9 6)">
        <g id="prefix__Group_10461" data-name="Group 10461">
            <g filter="url(#prefix__Ellipse_462)" transform="translate(-9 -6)">
                <circle id="prefix__Ellipse_462-2" cx="20" cy="20" r="20" fill="#fff" data-name="Ellipse 462" transform="translate(9 6)"/>
            </g>
            <path id="prefix__Path_20051" fill="#adafb3" d="M290.174 420.757a2.091 2.091 0 0 1 .153-.219l4.851-5.093a1.175 1.175 0 0 1 1.7 1.62l-2.945 3.141h10.892a1.173 1.173 0 0 1 0 2.347h-10.834l3.138 3.113a1.182 1.182 0 0 1-.78 2.044 1.262 1.262 0 0 1-.843-.326l-5.169-5.168a1.234 1.234 0 0 1-.338-.845v-.154a.957.957 0 0 1 .067-.277.731.731 0 0 1 .108-.183z" data-name="Path 20051" transform="translate(-278 -401.081)"/>
        </g>
    </g>
</svg>
