<svg xmlns="http://www.w3.org/2000/svg" width="40" height="40" viewBox="0 0 40 40">
    <g id="refund" transform="translate(-1195 -1081)">
        <g id="Group_10060" data-name="Group 10060" transform="translate(423 94)">
            <path id="box" d="M27.863 10.1L25.1 5.794A2.618 2.618 0 0 0 22.608 4H5.392A2.618 2.618 0 0 0 2.9 5.794L.137 10.1a2.675 2.675 0 0 0-.137.827v14.448A2.626 2.626 0 0 0 2.625 28h22.75A2.626 2.626 0 0 0 28 25.375V10.927a2.524 2.524 0 0 0-.137-.827zm-26.113.827a.988.988 0 0 1 .044-.279l2.767-4.3a.877.877 0 0 1 .831-.6h7.733v5.188H1.75zm24.5 14.448a.878.878 0 0 1-.875.875H2.625a.878.878 0 0 1-.875-.875V12.688h24.5zm0-14.437H14.875V5.75h7.733a.877.877 0 0 1 .831.6l2.767 4.3a.931.931 0 0 1 .044.279v.011z" transform="translate(778 991)"/>
            <g id="Back" transform="translate(774 966)">
                <g id="Group_6785" stroke="#000" data-name="Group 6785" transform="translate(14 41.5)">
                    <path id="Chevron" stroke-width="0.5px" d="M3.179 6.857L.1 3.738a.339.339 0 0 1 0-.475L3.179.143a.477.477 0 0 1 .68 0 .492.492 0 0 1 0 .688L1.223 3.5l2.636 2.669a.492.492 0 0 1 0 .689.477.477 0 0 1-.68 0"/>
                    <path id="Line_89" fill="none" stroke-linecap="round" stroke-width="1.8px" d="M0 0L6 0" data-name="Line 89" transform="translate(1.25 3.5)"/>
                </g>
            </g>
        </g>
        <path id="Rectangle_4898" fill="none" d="M0 0H40V40H0z" data-name="Rectangle 4898" transform="translate(1195 1081)"/>
    </g>
</svg>
