<svg xmlns="http://www.w3.org/2000/svg" width="40" height="40" viewBox="0 0 40 40">
    <defs>
        <clipPath id="clip-path">
            <path id="_Icon_小olor" fill="#0d1c2e" stroke="#fff" stroke-miterlimit="10" stroke-width="0.1px" d="M11.375 17.5h-8.75A2.628 2.628 0 0 1 0 14.875v-7A2.628 2.628 0 0 1 2.625 5.25H3.5V3.6A3.554 3.554 0 0 1 7 0a3.553 3.553 0 0 1 3.5 3.6v1.65h.875A2.628 2.628 0 0 1 14 7.875v7a2.628 2.628 0 0 1-2.625 2.625zM2.625 7a.876.876 0 0 0-.875.875v7a.876.876 0 0 0 .875.875h8.75a.876.876 0 0 0 .876-.875v-7A.876.876 0 0 0 11.375 7h-8.75zM7 1.75A1.8 1.8 0 0 0 5.25 3.6v1.65h3.5V3.6A1.8 1.8 0 0 0 7 1.75zM7 14a2.625 2.625 0 1 1 2.625-2.625A2.628 2.628 0 0 1 7 14zm0-3.5a.875.875 0 1 0 .875.875A.876.876 0 0 0 7 10.5z" data-name=" Icon 小olor"/>
        </clipPath>
        <style>
        </style>
    </defs>
    <g id="secure_payment" transform="translate(-886 -1082)">
        <g id="Group_10111" data-name="Group 10111" transform="translate(-32 143)">
            <path id="Subtraction_4" fill="#020504" d="M5559.616-122.97h-18.679a2.94 2.94 0 0 1-2.937-2.936V-128h1.721v2.094a1.217 1.217 0 0 0 1.216 1.215h18.679a1.217 1.217 0 0 0 1.216-1.215v-7.442H5546v-1.721h14.831v-3.29a1.217 1.217 0 0 0-1.216-1.215H5546v-1.726h13.615a2.94 2.94 0 0 1 2.937 2.937v12.454a2.94 2.94 0 0 1-2.936 2.939z" data-name="Subtraction 4" transform="translate(-4608 1093)"/>
            <g id="lock" transform="translate(922 945.5)">
                <g id="_Icon_小olor-2" fill="#0d1c2e" stroke="none" stroke-miterlimit="10" data-name=" Icon 小olor">
                    <path d="M11.375 17.45h-8.75c-1.42 0-2.575-1.155-2.575-2.575v-7C.05 6.455 1.205 5.3 2.625 5.3h.925V3.597C3.55 1.641 5.097.05 7 .05c1.902 0 3.45 1.591 3.45 3.547V5.3h.925c1.42 0 2.575 1.155 2.575 2.575v7c0 1.42-1.155 2.575-2.575 2.575zm-8.75-10.5c-.51 0-.925.415-.925.925v7c0 .51.415.925.925.925h8.75c.51 0 .925-.415.925-.925v-7c0-.51-.415-.925-.925-.925h-8.75zM7 1.7c-.992 0-1.8.851-1.8 1.897V5.3H8.8V3.597C8.8 2.551 7.993 1.7 7 1.7zm0 12.25c-1.42 0-2.575-1.155-2.575-2.575C4.425 9.955 5.58 8.8 7 8.8c1.42 0 2.575 1.155 2.575 2.575 0 1.42-1.155 2.575-2.575 2.575zm0-3.5c-.51 0-.925.415-.925.925s.415.925.925.925.925-.415.925-.925S7.51 10.45 7 10.45z"/>
                    <path fill="#fff" d="M11.375 17.4c1.392 0 2.525-1.133 2.525-2.525v-7c0-1.392-1.133-2.525-2.525-2.525H10.4V3.597C10.4 1.67 8.875.1 7 .1S3.6 1.669 3.6 3.597V5.35h-.975C1.233 5.35.1 6.483.1 7.875v7c0 1.392 1.133 2.525 2.525 2.525h8.75M2.625 6.9h8.75c.538 0 .975.437.975.975v7c0 .537-.437.975-.975.975h-8.75c-.538 0-.975-.438-.975-.975v-7c0-.538.437-.975.975-.975M7 1.65c1.02 0 1.85.873 1.85 1.947L8.849 5.25v.1H5.15V3.597c0-1.074.83-1.947 1.85-1.947M7 13.9c1.392 0 2.525-1.133 2.525-2.525C9.525 9.982 8.392 8.85 7 8.85s-2.525 1.132-2.525 2.525C4.475 12.767 5.608 13.9 7 13.9m0-3.5c.538 0 .975.437.975.975s-.437.975-.975.975-.975-.437-.975-.975.437-.975.975-.975m4.375 7.1h-8.75C1.177 17.5 0 16.322 0 14.875v-7C0 6.428 1.177 5.25 2.625 5.25H3.5V3.597C3.5 1.614 5.07 0 7 0s3.5 1.614 3.5 3.597V5.25h.875C12.822 5.25 14 6.428 14 7.875v7c0 1.447-1.178 2.625-2.625 2.625zM2.625 7c-.483 0-.875.392-.875.875v7c0 .482.392.875.875.875h8.75c.482 0 .875-.393.875-.875v-7c0-.483-.393-.875-.875-.875h-8.75zM7 1.75c-.965 0-1.75.829-1.75 1.847V5.25H8.75V3.597C8.75 2.58 7.966 1.75 7 1.75zM7 14c-1.447 0-2.625-1.178-2.625-2.625C4.375 9.927 5.553 8.75 7 8.75s2.625 1.177 2.625 2.625C9.625 12.822 8.447 14 7 14zm0-3.5c-.482 0-.875.392-.875.875 0 .482.393.875.875.875s.875-.393.875-.875c0-.483-.393-.875-.875-.875z"/>
                </g>
            </g>
            <path id="Line_97" fill="none" stroke="#020504" stroke-linecap="round" stroke-width="1.5px" d="M0 0L5 0" data-name="Line 97" transform="translate(945.5 955.7)"/>
        </g>
        <path id="Rectangle_4899" fill="none" d="M0 0H40V40H0z" data-name="Rectangle 4899" transform="translate(886 1082)"/>
    </g>
</svg>
