<svg xmlns="http://www.w3.org/2000/svg" width="30.7" height="30.7" viewBox="0 0 30.7 30.7">
    <g id="share" stroke="#fff" transform="translate(-1504.65 -805.65)">
        <path id="Share-2" fill-rule="evenodd" stroke-width="0.1px" d="M712.649 2142.488a3.341 3.341 0 0 0-2.571 1.2l-5.57-2.715a3.129 3.129 0 0 0 .1-.788 3.18 3.18 0 0 0-.131-.894l5.667-2.991a3.385 3.385 0 0 0 4.407.548 3.193 3.193 0 0 0 1.031-4.213 3.365 3.365 0 0 0-4.186-1.453 3.221 3.221 0 0 0-1.93 3.9l-5.667 3a3.366 3.366 0 0 0-3.684-.906 3.2 3.2 0 0 0 .1 6.066 3.362 3.362 0 0 0 3.651-1.026l5.569 2.715a3.187 3.187 0 0 0 1.4 3.487 3.375 3.375 0 0 0 3.839-.16 3.176 3.176 0 0 0 1.092-3.592 3.3 3.3 0 0 0-3.129-2.174zm0-10.14a1.844 1.844 0 1 1-1.891 1.844 1.868 1.868 0 0 1 1.891-1.844zm-11.345 9.679a1.844 1.844 0 1 1 1.891-1.844 1.868 1.868 0 0 1-1.895 1.844zm11.345 5.531a1.844 1.844 0 1 1 1.891-1.844 1.868 1.868 0 0 1-1.891 1.844z" data-name="Share" transform="translate(813.009 -1318.936)"/>
    </g>
</svg>
