<svg xmlns="http://www.w3.org/2000/svg" width="40" height="40" viewBox="0 0 40 40">
    <g id="shipping" transform="translate(-1510 -1081)">
        <path id="Rectangle_4897" fill="none" d="M0 0H40V40H0z" data-name="Rectangle 4897" transform="translate(1510 1081)"/>
        <path id="shipping-fast" fill="#141414" d="M18 40a.4.4 0 0 1-.4-.4v-.8a.4.4 0 0 1 .4-.4h12a.4.4 0 0 1 .4.4v.8a.4.4 0 0 1-.4.4zM.4 49.6h1.2v-5.405a3.2 3.2 0 0 1 .94-2.26l4.2-4.195A3.186 3.186 0 0 1 9 36.8h2.2v-2.47A2.407 2.407 0 0 1 13.67 32h12.66a2.407 2.407 0 0 1 2.47 2.33v.87h2.8a.4.4 0 0 1 .4.4v.8a.4.4 0 0 1-.4.4h-12a.4.4 0 0 1-.4-.4v-.8a.4.4 0 0 1 .4-.4h7.6v-.87a.808.808 0 0 0-.87-.73H13.67a.808.808 0 0 0-.87.73V49.6h8.82A3.986 3.986 0 0 1 24.8 48a3.942 3.942 0 0 1 2.4.82V44.8h1.6V52a4 4 0 1 1-8 0 4.214 4.214 0 0 1 .08-.8h-9.76a3.843 3.843 0 0 1 .08.8 4 4 0 0 1-8 0 4.214 4.214 0 0 1 .08-.8H.4a.4.4 0 0 1-.4-.4V50a.4.4 0 0 1 .4-.4zm24.4 4.8a2.4 2.4 0 1 0-2.4-2.4 2.4 2.4 0 0 0 2.4 2.4zm-13.6-16H8.995a1.6 1.6 0 0 0-1.13.47L3.67 43.065a1.339 1.339 0 0 0-.09.14h7.62zm-4 16A2.4 2.4 0 1 0 4.8 52a2.4 2.4 0 0 0 2.4 2.4zm-4-4.8h.82a3.96 3.96 0 0 1 6.36 0h.82v-4.8h-8zm16-6.8V42a.4.4 0 0 1 .4-.4h12a.4.4 0 0 1 .4.4v.8a.4.4 0 0 1-.4.4h-12a.4.4 0 0 1-.4-.4z" transform="translate(1514 1057)"/>
    </g>
</svg>
