<svg xmlns="http://www.w3.org/2000/svg" width="24" height="24" viewBox="0 0 24 24">
    <g id="prefix__shopping_basket" transform="translate(-352 -165)">
        <path id="prefix__Rectangle_4767" fill="none" d="M0 0H24V24H0z" data-name="Rectangle 4767" transform="translate(352 165)"/>
        <g id="prefix__shopping-cart" transform="translate(355 169)">
            <g id="prefix___Icon_Сolor" fill="#141414" stroke="none" stroke-miterlimit="10" data-name="🎨 Icon Сolor">
                <path d="M14.394 16.1c-.713 0-1.293-.56-1.293-1.25s.58-1.25 1.293-1.25 1.293.56 1.293 1.25-.58 1.25-1.293 1.25zm-9.287 0c-.713 0-1.293-.56-1.293-1.25s.58-1.25 1.293-1.25 1.294.56 1.294 1.25-.58 1.25-1.294 1.25zm8.823-4.5H5.572c-.373 0-.702-.243-.8-.59l-2.6-9.237-.02-.073H.929C.472 1.7.1 1.34.1.9.1.459.472.1.929.1h1.857c.372 0 .701.243.8.59l.573 2.037.02.073h11.962c.615 0 1.174.302 1.495.807.322.504.35 1.122.078 1.652l-3.042 5.897c-.142.274-.426.444-.742.444zm-9.3-7.2l.035.127 1.52 5.4.02.073h7.21l.029-.054 2.786-5.4.075-.146H4.63z"/>
                <path fill="#fff" d="M14.394 16c.657 0 1.193-.516 1.193-1.15 0-.634-.536-1.15-1.193-1.15-.658 0-1.193.516-1.193 1.15 0 .634.535 1.15 1.193 1.15m-9.287 0c.658 0 1.194-.516 1.194-1.15 0-.634-.536-1.15-1.194-1.15-.658 0-1.193.516-1.193 1.15 0 .634.535 1.15 1.193 1.15m8.823-4.5c.278 0 .529-.15.653-.39l3.042-5.897c.256-.498.23-1.078-.073-1.552-.303-.477-.83-.761-1.41-.761H4.102l-.04-.146L3.49.718C3.403.413 3.114.2 2.786.2H.929C.527.2.2.514.2.9c0 .386.327.7.729.7h1.299l.04.146 2.6 9.236c.086.305.376.518.704.518h8.358M4.497 4.3H16.47l-.15.292-2.787 5.4-.055.108H6.13l-.04-.146-1.521-5.4-.072-.254m9.897 11.9c-.768 0-1.393-.606-1.393-1.35 0-.744.625-1.35 1.393-1.35s1.393.606 1.393 1.35c0 .744-.625 1.35-1.393 1.35zm-9.287 0c-.768 0-1.393-.606-1.393-1.35 0-.744.625-1.35 1.393-1.35.769 0 1.394.606 1.394 1.35 0 .744-.625 1.35-1.394 1.35zm8.823-4.5H5.572c-.417 0-.786-.273-.897-.663L2.076 1.8H.929C.417 1.8 0 1.396 0 .9S.417 0 .929 0h1.857c.417 0 .785.273.896.663L4.255 2.7H16.14c.65 0 1.24.319 1.58.853.34.535.371 1.19.082 1.752l-3.043 5.897c-.158.307-.477.498-.83.498zM4.76 4.5l1.52 5.4h7.074l2.786-5.4H4.761z"/>
            </g>
        </g>
    </g>
</svg>
