<svg xmlns="http://www.w3.org/2000/svg" width="16" height="13.931" viewBox="0 0 16 13.931">
    <path id="prefix__telegram" fill="#ec008c" d="M.283 26.08l3.687 1.376 1.43 4.589a.434.434 0 0 0 .689.208l2.055-1.675a.613.613 0 0 1 .747-.021l3.707 2.691a.434.434 0 0 0 .681-.263l2.715-13.061a.435.435 0 0 0-.582-.494L.278 25.267a.435.435 0 0 0 .005.813zm4.884.644l7.205-4.438a.126.126 0 0 1 .152.2l-5.947 5.526a1.233 1.233 0 0 0-.382.738l-.2 1.5a.186.186 0 0 1-.364.026L4.85 27.54a.725.725 0 0 1 .316-.816z" transform="translate(0 -19.4)"/>
</svg>
