<svg xmlns="http://www.w3.org/2000/svg" width="18" height="18" viewBox="0 0 18 18">
    <defs>
        <style>
            .prefix__cls-2{fill:#adafb3}
        </style>
    </defs>
    <g id="prefix__tip" transform="translate(-1403 -5122) translate(1403 5122)">
        <g id="prefix__Layer_2" data-name="Layer 2">
            <g id="prefix__question-mark">
                <g id="prefix__Group_10052" data-name="Group 10052" transform="translate(5.4 3.6)">
                    <path id="prefix__Path_9287" d="M13.6 7.3a3.3 3.3 0 1 0-6.6 0 .66.66 0 0 0 1.32 0 1.98 1.98 0 1 1 1.98 1.98.66.66 0 0 0-.66.66v1.32a.66.66 0 0 0 1.32 0v-.726A3.3 3.3 0 0 0 13.6 7.3z" class="prefix__cls-2" data-name="Path 9287" transform="translate(-7 -4)"/>
                    <circle id="prefix__Ellipse_440" cx=".66" cy=".66" r=".66" class="prefix__cls-2" data-name="Ellipse 440" transform="translate(2.64 9.24)"/>
                </g>
            </g>
        </g>
        <g id="prefix__Rectangle_4829" fill="none" stroke="#adafb3" data-name="Rectangle 4829">
            <path stroke="none" d="M0 0H18V18H0z"/>
            <path d="M0.5 0.5H17.5V17.5H0.5z"/>
        </g>
    </g>
</svg>
