<svg xmlns="http://www.w3.org/2000/svg" width="343.691" height="277.72" viewBox="0 0 343.691 277.72">
    <defs>
        <clipPath id="clip-path">
            <path id="Path_22227" d="M370.144 251.347l9.24-104.637H308.84l-9.24 104.637z" class="cls-1" transform="translate(-299.6 -146.71)"/>
        </clipPath>
        <style>
            .cls-1{fill:#141414}.cls-2{fill:#ebebeb}.cls-3{fill:#fff}.cls-4{fill:#fafafa}.cls-5{fill:#e0e0e0}.cls-6{fill:#e6e6e6}.cls-7{fill:#f5f5f5}.cls-8{fill:#407bff}.cls-9{fill:#b7b7b7}.cls-11{fill:#263238}.cls-14{fill:#fbfbfb}
        </style>
    </defs>
    <g id="under_construction" transform="translate(-798.695 -261.328)">
        <g id="Portfolio_Update-rafiki" transform="translate(760 186)">
            <g id="freepik--background-complete--inject-2" transform="translate(0 55)">
                <rect id="Rectangle_16841" width="296.536" height="226.08" class="cls-2" rx="7.52" transform="translate(52.536 20.328)"/>
                <path id="Rectangle_16842" d="M0 0H292V203.52H0z" class="cls-3" transform="translate(54.648 34.888)"/>
                <circle id="Ellipse_1560" cx="3.2" cy="3.2" r="3.2" class="cls-4" transform="translate(62.536 24.952)"/>
                <circle id="Ellipse_1561" cx="3.2" cy="3.2" r="3.2" class="cls-4" transform="translate(73.872 24.952)"/>
                <circle id="Ellipse_1562" cx="3.2" cy="3.2" r="3.2" class="cls-4" transform="translate(85.208 24.952)"/>
                <path id="Rectangle_16845" d="M0 0H66.848V93.736H0z" class="cls-2" transform="translate(80.536 54.888)"/>
                <path id="Rectangle_16846" d="M0 0H82.536V55.648H0z" class="cls-4" transform="rotate(90 40.644 101.132)"/>
                <path id="Rectangle_16847" d="M0 0H82.536V0.8H0z" class="cls-5" transform="rotate(90 40.644 101.132)"/>
                <circle id="Ellipse_1563" cx="17.064" cy="17.064" r="17.064" class="cls-2" transform="rotate(-80.85 115.264 2.538)"/>
                <path id="Rectangle_16849" d="M0 0H66.848V78.44H0z" class="cls-2" transform="translate(80.536 159.968)"/>
                <path id="Rectangle_16850" d="M0 0H72.84V55.648H0z" class="cls-6" transform="rotate(90 -11.896 153.672)"/>
                <path id="Rectangle_16851" d="M0 0H72.84V0.8H0z" class="cls-5" transform="rotate(90 -11.892 153.676)"/>
                <path id="Rectangle_16852" d="M0 0H31.456V31.456H0z" class="cls-4" transform="translate(98.232 191.104)"/>
                <path id="Rectangle_16854" d="M0 0H66.848V93.736H0z" class="cls-2" transform="translate(248.584 107.2)"/>
                <path id="Rectangle_16855" d="M0 0H82.536V55.648H0z" class="cls-4" transform="rotate(90 98.516 211.316)"/>
                <path id="Path_22211" d="M238.332 224.44L221.26 254h34.14z" class="cls-6" transform="translate(43.748 -88.888)"/>
                <path id="Path_22212" d="M454.057 354.154c-18.4 4-39.048-29.4-4.624-62.664 6.432 34.072 36.744 55.672 4.624 62.664z" class="cls-5" transform="translate(-86.177 -102.298)"/>
                <path id="Path_22213" d="M418.855 321.336c-4.424-5.384-9.656-11.44-8.384-17.848s4.432-11.2 1.912-17.992c-3.016-8.184-2.4-17.944 2.672-17.128s10.824 6.8 10.672 14.728c-.1 7.672 4.92 10.12 9.64 14.208s6.536 10.04 7.384 15.928c1.488 9.288 13.512 7.528 16.712 15.6 3.288 7.784-3.288 18.168-13.816 20.552s-17.992 3.872-25.192-4.344c-7.296-8.728 4.96-15.984-1.6-23.704z" class="cls-2" transform="translate(-82.055 -97.664)"/>
                <path id="Path_22214" d="M442.822 313.344a.2.2 0 0 0 .064-.272.208.208 0 0 0-.28-.064 20.112 20.112 0 0 0-7.784 11.536c-1.328-4.48-2.784-9.04-4.288-13.52a.128.128 0 0 0 0-.072c-1.424-4.248-2.888-8.416-4.32-12.392.072-3.3 2.88-6.656 2.9-6.7a.192.192 0 0 0 0-.28.2.2 0 0 0-.28 0 14.08 14.08 0 0 0-2.92 6.072c-.624-1.728-1.248-3.424-1.864-5.064-.056-2.144 2.264-5.672 2.288-5.7a.2.2 0 1 0-.328-.224 16.984 16.984 0 0 0-2.288 5.064c-1.664-4.464-3.24-8.536-4.6-12v-.04c-2.728-6.928-4.6-11.376-4.664-11.528a.2.2 0 0 0-.264-.1.184.184 0 0 0-.1.256c.064.152 1.856 4.416 4.5 11.1-5.088-2.128-7.808-1.8-7.928-1.784a.192.192 0 0 0-.168.224.2.2 0 0 0 .224.176s2.872-.352 8.072 1.9c3.1 7.864 7.288 18.9 11.2 30.512a32.512 32.512 0 0 0-19.7-6.344.2.2 0 0 0-.184.216.192.192 0 0 0 .216.184 32.136 32.136 0 0 1 19.88 6.6c2.944 8.8 5.7 17.832 7.7 26.072-6.832-6.16-17.744-6.576-17.856-6.584a.208.208 0 0 0-.208.2.192.192 0 0 0 .192.2c.112 0 11.36.432 18.04 6.888a125.535 125.535 0 0 1 2.4 12.384.192.192 0 0 0 .192.176.192.192 0 0 0 .168-.224c-.512-3.768-1.344-8-2.4-12.424-.952-4-2.088-8.192-3.344-12.464a19.472 19.472 0 0 1 7.732-11.98z" class="cls-5" transform="translate(-82.022 -97.608)"/>
                <path id="Path_22215" d="M454.47 367.87h-19.8v1.96h1.208l1.08 17.384h15.224l1.08-17.384h1.208z" class="cls-5" transform="translate(-86.934 -117.574)"/>
            </g>
            <g id="freepik--Shadow--inject-2" transform="translate(44.888 334.936)">
                <ellipse id="Ellipse_1564" cx="155.112" cy="9.056" class="cls-7" rx="155.112" ry="9.056"/>
            </g>
            <g id="freepik--Character--inject-2" transform="translate(23.848 120.465)">
                <path id="Path_22277" d="M228.046 187.058a143.48 143.48 0 0 1-18.12 10.272c-3.12 1.536-6.3 2.968-9.448 4.424s-6.312 2.928-9.5 4.336q-9.52 4.3-19.136 8.4c-6.4 2.744-12.872 5.4-19.408 7.912a4.8 4.8 0 0 1-4.544-8.376c5.672-4.112 11.424-8.072 17.216-11.952s11.616-7.7 17.48-11.464c2.912-1.9 5.864-3.744 8.8-5.6s5.88-3.728 8.864-5.5a143.038 143.038 0 0 1 18.5-9.6 9.808 9.808 0 0 1 9.3 17.144z" class="cls-1" transform="translate(-131.022 -153.3)"/>
                <path id="Path_22278" d="M276.368 151.29c-2.4 1.288-4.336 2.3-7.448 2.3v.352c3.2 0 5.152-1.032 7.616-2.344z" class="cls-8" transform="translate(-155.632 -149.723)"/>
                <path id="Path_22279" d="M276.368 151.29c-2.4 1.288-4.336 2.3-7.448 2.3v.352c3.2 0 5.152-1.032 7.616-2.344z" class="cls-1" transform="translate(-155.632 -149.723)"/>
                <path id="Path_22280" d="M263.32 153.66v.352a7.023 7.023 0 0 1 1.224.1v-.344a7.063 7.063 0 0 0-1.224-.112z" class="cls-8" transform="translate(-154.512 -150.197)"/>
                <path id="Path_22281" d="M263.32 153.66v.352a7.023 7.023 0 0 1 1.224.1v-.344a7.063 7.063 0 0 0-1.224-.112z" class="cls-1" transform="translate(-154.512 -150.197)"/>
                <path id="Path_22282" d="M275.362 174.59c-3.5 3.2-7.144 4.888-10.552 4.888v.352c3.5 0 7.2-1.728 10.792-4.984z" class="cls-8" transform="translate(-154.81 -154.383)"/>
                <path id="Path_22283" d="M275.362 174.59c-3.5 3.2-7.144 4.888-10.552 4.888v.352c3.5 0 7.2-1.728 10.792-4.984z" class="cls-1" transform="translate(-154.81 -154.383)"/>
                <path id="Path_22285" d="M275.887 151.38c-4.112 2.168-7.44 4.224-14.784 2.952-6.768-1.176-12.28 9.36-6.9 15.864 4.984 6.024 12.152 4 18.12-1.424a29.84 29.84 0 0 0 6.744-9.848c-.944.488-1.92.984-2.992 1.44-2.932 1.272-2.612-3.528-.188-8.984z" class="cls-6" transform="translate(-152.255 -149.741)"/>
                <path id="Path_22286" d="M284.3 149.538c-1.048.456-2.016.944-2.928 1.432-2.4 5.456-2.744 10.256.192 8.984 1.072-.456 2.048-.952 2.992-1.44 2.386-5.448 2.674-10.248-.256-8.976z" class="cls-8" transform="translate(-157.742 -149.332)"/>
                <path id="Path_22287" d="M284.3 149.538c-1.048.456-2.016.944-2.928 1.432-2.4 5.456-2.744 10.256.192 8.984 1.072-.456 2.048-.952 2.992-1.44 2.386-5.448 2.674-10.248-.256-8.976z" class="cls-1" transform="translate(-157.742 -149.332)"/>
                <path id="Path_22288" d="M277.349 157.416c-.288.976-.944 1.6-1.472 1.48s-.728-1.064-.44-2.04.944-1.6 1.472-1.48.728 1.072.44 2.04z" class="cls-8" transform="translate(-156.909 -150.538)"/>
                <path id="Path_22289" d="M277.349 157.416c-.288.976-.944 1.6-1.472 1.48s-.728-1.064-.44-2.04.944-1.6 1.472-1.48.728 1.072.44 2.04z" class="cls-1" transform="translate(-156.909 -150.538)"/>
            </g>
        </g>
        <g id="logo" transform="translate(181.77 186)">
            <g id="Group_9901" transform="translate(870.37 102)">
                <g id="Group_9898">
                    <g id="Group_9897">
                        <path id="Path_9255" d="M396.9 304.746l-10.778 6.064-10.778-6.064 10.778-2.931z" class="cls-6" transform="translate(-375.349 -289.638)"/>
                        <path id="Path_9256" d="M421.14 260.823v10.549l10.076 2.74-10.076 5.669v1.466l11.381-6.933z" class="cls-9" transform="translate(-409.661 -259.004)"/>
                        <path id="Path_9257" d="M421.14 302.571v8.409l10.076-5.669z" class="cls-9" transform="translate(-409.661 -290.203)"/>
                        <path id="Union_6" fill="#b7b7b7" stroke="rgba(0,0,0,0)" stroke-miterlimit="10" d="M2.64 14.386l8.023-2.186v6.745zM0 12.884L10.663 0v12.2L2.64 14.386z" transform="translate(.014)"/>
                    </g>
                </g>
            </g>
            <g id="Group_9964" transform="translate(805.231 106.763)">
                <path id="Rectangle_4663" d="M0 0H0.527V7.985H0z" class="cls-9" transform="translate(29.959 3.704)"/>
                <path id="Path_9260" d="M574.248 251.275a.528.528 0 0 0-.725 0 .529.529 0 0 0 0 .716.527.527 0 0 0 .725 0 .528.528 0 0 0 0-.716" class="cls-9" transform="translate(-543.664 -249.504)"/>
                <path id="Path_9261" d="M493.915 259.683c-.09-.006-.179-.008-.265-.008a2.986 2.986 0 0 0-1.668.467 3.184 3.184 0 0 0-1.111 1.26l-.21.421V259.7h-.476v7.981h.527V262l.017-.027a4.165 4.165 0 0 1 1.339-1.39 3.414 3.414 0 0 1 1.8-.468h.162v-.415a.881.881 0 0 0-.117-.015" class="cls-9" transform="translate(-480.524 -255.988)"/>
                <path id="Path_9262" d="M515.795 260.57a3.993 3.993 0 0 1-.527.138 3.719 3.719 0 0 1-.693.062 1.313 1.313 0 0 1-1.273-.6 3.633 3.633 0 0 1-.3-1.662v-4.873h2.844v-.425H513v-2.078h-.527v2.078h-1.483v.425h1.482v4.92a5.188 5.188 0 0 0 .108 1.1 2.3 2.3 0 0 0 .341.827 1.607 1.607 0 0 0 .614.525 2.187 2.187 0 0 0 .972.192 3.721 3.721 0 0 0 .777-.085 4.291 4.291 0 0 0 .565-.155z" class="cls-9" transform="translate(-496.314 -249.504)"/>
                <path id="Rectangle_4665" d="M0 0H0.527V7.985H0z" class="cls-9" transform="translate(20.703 3.704)"/>
                <path id="Path_9263" d="M548.966 253.436a3.4 3.4 0 0 1-.652 1.179 3 3 0 0 1-1.069.787 3.536 3.536 0 0 1-1.442.282 5.554 5.554 0 0 1-1.017-.079 5.728 5.728 0 0 1-.808-.217l-.075-.026v-5.971l.039-.034a4.8 4.8 0 0 1 1.133-.723 3.12 3.12 0 0 1 1.307-.291 2.656 2.656 0 0 1 1.261.285 2.5 2.5 0 0 1 .882.784 3.4 3.4 0 0 1 .5 1.153 6.019 6.019 0 0 1 .156 1.4 4.771 4.771 0 0 1-.219 1.473m.537-3.07a3.918 3.918 0 0 0-.612-1.284 2.913 2.913 0 0 0-1-.853 2.976 2.976 0 0 0-1.388-.311 3.268 3.268 0 0 0-1.392.288 3.767 3.767 0 0 0-1.018.669l-.188.18v-4.671h-.527v11.284a6.551 6.551 0 0 0 2.426.441 4.03 4.03 0 0 0 1.641-.323 3.647 3.647 0 0 0 1.232-.876 3.8 3.8 0 0 0 .769-1.308 4.944 4.944 0 0 0 .266-1.641 5.92 5.92 0 0 0-.209-1.6" class="cls-9" transform="translate(-520.892 -244.385)"/>
                <path id="Path_9264" d="M585.975 260.57a3.993 3.993 0 0 1-.527.138 3.719 3.719 0 0 1-.693.062 1.313 1.313 0 0 1-1.273-.6 3.633 3.633 0 0 1-.3-1.662v-4.873h2.844v-.425h-2.844v-2.078h-.527v2.078h-1.485v.425h1.482v4.92a5.188 5.188 0 0 0 .108 1.1 2.3 2.3 0 0 0 .34.827 1.607 1.607 0 0 0 .614.525 2.187 2.187 0 0 0 .972.192 3.722 3.722 0 0 0 .778-.085 4.263 4.263 0 0 0 .565-.155z" class="cls-9" transform="translate(-549.572 -249.504)"/>
                <path id="Rectangle_4667" d="M0 0H0.527V7.985H0z" class="cls-9" transform="translate(38.191 3.704)"/>
                <path id="Path_9265" d="M622.223 264.564a3.48 3.48 0 0 1-.572 1.161 2.859 2.859 0 0 1-4.519 0 3.475 3.475 0 0 1-.572-1.161 5.371 5.371 0 0 1 0-2.846 3.474 3.474 0 0 1 .572-1.17 2.746 2.746 0 0 1 2.259-1.082 2.744 2.744 0 0 1 2.26 1.082 3.478 3.478 0 0 1 .572 1.17 5.381 5.381 0 0 1 0 2.846m.494-2.97a3.984 3.984 0 0 0-.671-1.309 3.276 3.276 0 0 0-1.112-.906 3.7 3.7 0 0 0-3.084 0 3.277 3.277 0 0 0-1.112.906 3.989 3.989 0 0 0-.671 1.309 5.4 5.4 0 0 0 0 3.086 3.987 3.987 0 0 0 .671 1.309 3.274 3.274 0 0 0 1.112.906 3.7 3.7 0 0 0 3.084 0 3.273 3.273 0 0 0 1.112-.906 3.991 3.991 0 0 0 .671-1.309 5.4 5.4 0 0 0 0-3.086" class="cls-9" transform="translate(-575.884 -255.507)"/>
                <path id="Path_9266" d="M657.176 261.374a3.843 3.843 0 0 0-.488-1.217 2.5 2.5 0 0 0-.831-.816 2.321 2.321 0 0 0-1.2-.3 3.213 3.213 0 0 0-1.523.362 3.547 3.547 0 0 0-1.164.991l-.2.261v-1.444h-.476v7.85l.527-.29v-5.821l.025-.031A4.9 4.9 0 0 1 653 259.9a2.692 2.692 0 0 1 1.465-.435 2.082 2.082 0 0 1 1.123.29 2.106 2.106 0 0 1 .728.772 3.6 3.6 0 0 1 .378 1.116 7.67 7.67 0 0 1 .112 1.339v4.218h.527v-4.333a6.776 6.776 0 0 0-.159-1.491" class="cls-9" transform="translate(-602.786 -255.508)"/>
                <path id="Path_9267" d="M451.286 252.429l2.882-7.482 2.882 7.482zm-.647 1.667l.467-1.218h6.1l1.257 3.232h.538l-4.63-11.725h-.415l-3.115 7.888z" class="cls-9" transform="translate(-450.514 -244.385)"/>
                <path id="Path_9268" d="M454.045 244.385l-3.082 7.805.008.239-.1.372-.119 1.054.014.134.426-1.111h2.734l.278-.448h-2.832l2.88-7.476-.2-.568z" class="cls-9" transform="translate(-450.6 -244.385)"/>
                <path id="Path_9269" d="M553.5 257.583c-.008-.007-.008-.026 0-.057l.351-.724c.023-.046.045-.068.068-.068a2.2 2.2 0 0 1 .475.283q.418.283.419.339a2.22 2.22 0 0 1-.362.781c-.03.053-.061.064-.091.034q-.215-.158-.424-.3t-.436-.288m1.287.341c.023-.045.045-.068.068-.068a2.207 2.207 0 0 1 .475.283 1.715 1.715 0 0 1 .43.339 2.078 2.078 0 0 1-.373.781q-.046.068-.091.034l-.4-.278q-.2-.141-.43-.288a4.228 4.228 0 0 1-.306.589c-.022.053-.053.068-.09.045q-.2-.158-.419-.306t-.441-.294 0-.056l.362-.724c.023-.045.046-.068.068-.068a2.027 2.027 0 0 1 .408.238 3.4 3.4 0 0 1 .453.339z" class="cls-9" transform="translate(-528.356 -253.756)"/>
                <path id="Path_9270" d="M569.327 284.035c.023-.045.045-.068.068-.068a2.679 2.679 0 0 1 .475.294 2.132 2.132 0 0 1 .43.328 2.081 2.081 0 0 1-.373.781q-.045.068-.09.034l-.4-.277q-.2-.141-.43-.288a4.191 4.191 0 0 1-.306.589c-.023.053-.052.068-.09.045q-.2-.159-.419-.306t-.441-.294q-.023-.011 0-.068l.362-.713q.034-.068.068-.068a2.019 2.019 0 0 1 .407.238 2.855 2.855 0 0 1 .453.351z" class="cls-9" transform="translate(-539.383 -274.423)"/>
                <path id="Path_9271" d="M582.3 284.944q-.023-.011 0-.068l.362-.724c.023-.045.045-.068.068-.068a2.647 2.647 0 0 1 .475.294q.418.282.419.339a2.123 2.123 0 0 1-.373.77c-.03.052-.06.068-.091.045a7.155 7.155 0 0 0-.86-.589" class="cls-9" transform="translate(-550.421 -274.512)"/>
                <path id="Path_9272" d="M459.91 271.169q-.226-.09-.4-.181a3.234 3.234 0 0 1-.311-.181 3 3 0 0 1-.577 1.992 7.64 7.64 0 0 1-2.139 1.641 6.9 6.9 0 0 1-3.35 1 2.987 2.987 0 0 1-3.01-3.033 5.361 5.361 0 0 1 .068-.837 4.218 4.218 0 0 1 .271-1.075c.045-.1.041-.141.071-.141s.1.049.064.175l-.136.577a3.574 3.574 0 0 0-.113.747 2.411 2.411 0 0 0 .566 1.55 2.69 2.69 0 0 0 2.207.939 7.185 7.185 0 0 0 2.716-.6 10.222 10.222 0 0 0 2.094-1.188q.849-.645.849-.917a4.76 4.76 0 0 0-.656-1.969.61.61 0 0 1-.079-.238 2.667 2.667 0 0 1 .068-.475 1.306 1.306 0 0 1 .136-.441q.068-.09.1-.09c.022 0 .049.038.079.113a3.287 3.287 0 0 0 .605.922 2.555 2.555 0 0 0 .877.605.6.6 0 0 1 .158.244 1 1 0 0 1 .062.311.875.875 0 0 1-.045.311.481.481 0 0 1-.176.243" class="cls-9" transform="translate(-450.121 -262.624)"/>
                <path id="Path_9274" d="M513.447 264.014v1.109a1.377 1.377 0 0 1-.906-.328 1.667 1.667 0 0 1-.577-1.086 2.318 2.318 0 0 1-.43 1.075 1.2 1.2 0 0 1-.291.266.662.662 0 0 1-.354.107 1.272 1.272 0 0 1-.437-.1c-.781-.337-.56-1.4-.763-2.015q-.057-.136-.1 0-.476 1.222-1.347 1.222t-1.041-1.109c-.015-.068-.027-.1-.034-.1a.563.563 0 0 0-.068.1 3.251 3.251 0 0 1-.622.713 2.02 2.02 0 0 1-1.3.577 1.086 1.086 0 0 1-1.223-1.234c0-.083-.019-.124-.056-.124a.6.6 0 0 0-.169.068 20.1 20.1 0 0 1-9.167 2 10.636 10.636 0 0 1-3.837-.566v-1.109a5.3 5.3 0 0 0 .662.2 10.9 10.9 0 0 0 1.092.2q.656.091 1.262.136t1.16.046a23.734 23.734 0 0 0 5.149-.577 15.4 15.4 0 0 0 4.029-1.4.538.538 0 0 1 .221-.085c.068 0 .087.06.057.181a1.1 1.1 0 0 0-.068.362.685.685 0 0 0 .317.6 1.385 1.385 0 0 0 .77.192 2.085 2.085 0 0 0 1.3-.486l.153-.153q.13-.131.357-.38a3.347 3.347 0 0 1 .452-.441q.09 0 .034.192a1.594 1.594 0 0 0-.091.339.84.84 0 0 0 .158.43.625.625 0 0 0 .555.328q.905 0 1.551-1.313c.045-.083.1-.124.158-.124.045 0 .068.038.068.113 0 .03 0 .079-.011.147-.033.288-.14 1.583.7 1.967a.841.841 0 0 0 .5.038.637.637 0 0 0 .442-.683 5.725 5.725 0 0 0-.147-.894q-.091-.384-.17-.7t-.158-.56a2.016 2.016 0 0 1-.08-.249 2.289 2.289 0 0 1 .181-1.007c.045-.106.075-.158.091-.158s.06.038.09.113a9.652 9.652 0 0 1 .679 2.478 2.668 2.668 0 0 0 .543 1.426.963.963 0 0 0 .713.249" class="cls-9" transform="translate(-480.933 -256.044)"/>
                <path id="Path_9275" d="M588.322 273.958a1.428 1.428 0 0 1-.792-.226 1.707 1.707 0 0 1-.51-1.145 2.391 2.391 0 0 1-.634.758 2.134 2.134 0 0 1-1.415.577v-1.109a2.392 2.392 0 0 0 1.562-.5 6.05 6.05 0 0 0 .5-.532 3.22 3.22 0 0 1 .441-.441c.045 0 .068.038.068.113a.332.332 0 0 1-.023.125 1.639 1.639 0 0 0-.057.385.833.833 0 0 0 .86.884.594.594 0 0 1 .147.249 1.052 1.052 0 0 1 0 .611.589.589 0 0 1-.147.249" class="cls-9" transform="translate(-552.458 -264.842)"/>
                <path id="Path_9276" d="M593.9 284.035q.034-.068.068-.068a2.672 2.672 0 0 1 .475.294 2.136 2.136 0 0 1 .43.328 2.082 2.082 0 0 1-.374.781q-.046.068-.091.034l-.4-.277q-.2-.141-.43-.289a4.25 4.25 0 0 1-.306.589q-.034.079-.09.045-.2-.159-.419-.306t-.441-.294q-.023-.011 0-.068l.362-.713c.023-.045.045-.068.068-.068a2.016 2.016 0 0 1 .408.238 2.874 2.874 0 0 1 .453.351z" class="cls-9" transform="translate(-558.032 -274.423)"/>
                <path id="Path_9277" d="M626.847 267.809c.023-.045.045-.068.068-.068a2.706 2.706 0 0 1 .475.294 2.161 2.161 0 0 1 .43.328 2.08 2.08 0 0 1-.373.781q-.046.068-.091.034l-.4-.277q-.2-.141-.43-.289a4.236 4.236 0 0 1-.306.589c-.022.053-.053.068-.09.045q-.2-.158-.419-.306t-.441-.294c-.015-.007-.015-.03 0-.068l.362-.713c.023-.045.046-.068.068-.068a2.033 2.033 0 0 1 .407.238 2.872 2.872 0 0 1 .453.351z" class="cls-9" transform="translate(-583.034 -262.109)"/>
                <path id="Path_9278" d="M609.8 275.449l.035.009.127.031v-.008a.606.606 0 0 0-.151-.236h-.007z" class="cls-9" transform="translate(-571.298 -267.803)"/>
                <path id="Path_9279" d="M614.528 261.776a1.712 1.712 0 0 1-.087.519 2.333 2.333 0 0 1-.106.273 1.306 1.306 0 0 1-.475.589 14.689 14.689 0 0 1-1.669.736 17.232 17.232 0 0 1-2 .6 22.863 22.863 0 0 1-5.166.665 10.175 10.175 0 0 1-3.527-.564 4.929 4.929 0 0 1-1.549-.884 2.327 2.327 0 0 1-.43 1.076.858.858 0 0 1-.656.373v-1.109q.826 0 .826-.736a5.756 5.756 0 0 0-.148-.894q-.09-.384-.169-.7t-.158-.56a2.078 2.078 0 0 1-.079-.249 2.287 2.287 0 0 1 .181-1.007c.045-.106.075-.158.09-.158q.045 0 .091.113a9.323 9.323 0 0 1 .659 2.37c.169.984 1.719 1.381 2.005 1.451a10.949 10.949 0 0 0 1.092.2q.656.091 1.262.136.451.034.875.043a23.286 23.286 0 0 0 4.258-.45 20.961 20.961 0 0 0 3.135-.894 4.8 4.8 0 0 0 1.279-.6 2.8 2.8 0 0 0-.69-1.086.418.418 0 0 1-.091-.363c.046-.2.081-.346.108-.452a1.661 1.661 0 0 1 .051-.181c.061-.128.109-.192.147-.192s.1.049.192.147a2.649 2.649 0 0 1 .747 1.788" class="cls-9" transform="translate(-563.001 -256.045)"/>
                <path id="Path_9280" d="M669.995 244.385a.305.305 0 0 1 .351.339.854.854 0 0 1-.079.339 2.464 2.464 0 0 1-.283.4q-.158.193-.266.311a2.309 2.309 0 0 0-.164.2q-.2.283-.26.249a1.189 1.189 0 0 1 .17-.447 3 3 0 0 1 .294-.4l.051-.051.09-.09q.062-.062.164-.176a.136.136 0 0 0-.085-.09.324.324 0 0 0-.108-.023.372.372 0 0 0-.091.023q-.068.023-.124.045a7.691 7.691 0 0 1-1.375.526 5.079 5.079 0 0 1-1.341.187 3.237 3.237 0 0 1-.639-.062 2.294 2.294 0 0 1-.583-.2.582.582 0 0 0 .017.13.349.349 0 0 1-.006.164 1.811 1.811 0 0 1-.068.226.835.835 0 0 1-.136.238q-.057 0-.057-.226a1.463 1.463 0 0 0-.034-.334 1.15 1.15 0 0 0-.1-.26 2.051 2.051 0 0 0-.147-.237q-.085-.119-.187-.255.057-.4.215-.4a.343.343 0 0 1 .1.079.469.469 0 0 0 .107.09 2.374 2.374 0 0 0 .764.379 3.154 3.154 0 0 0 .877.119 4.585 4.585 0 0 0 1.177-.153 6.281 6.281 0 0 0 1.154-.436 1.848 1.848 0 0 1 .6-.2" class="cls-9" transform="translate(-613.193 -244.385)"/>
                <path id="Path_9281" d="M674.045 253.01a3.4 3.4 0 0 1 .294-.917c.038-.06.06-.091.068-.091s.042.03.079.091a5.9 5.9 0 0 1 .34 2.139c0 .106.077 1.463.168 2.761s.136 2.029.136 2.218a5.987 5.987 0 0 1-.385 2.252c-.03.068-.059.127-.085.176a1.252 1.252 0 0 0-.062.13q-.068.124-.09.022a2.38 2.38 0 0 1 .023-.407c.015-.136.026-.29.034-.464s.011-.366.011-.577q0-.272-.17-2.773c-.053-.837-.125-2.163-.151-2.665s-.039-.839-.039-1.013a2.072 2.072 0 0 0-.17-.883" class="cls-9" transform="translate(-620.054 -250.166)"/>
                <path id="Path_9282" d="M463.843 276.6a.554.554 0 0 1-.058.251.787.787 0 0 1-.15.207.679.679 0 0 1-.212.145.6.6 0 0 1-.246.053.642.642 0 0 1-.468-.2.629.629 0 0 1-.2-.458.676.676 0 0 1 .666-.666.609.609 0 0 1 .246.053.694.694 0 0 1 .212.145.77.77 0 0 1 .15.212.583.583 0 0 1 .058.256" class="cls-9" transform="translate(-459.524 -268.329)"/>
                <path id="Path_9283" d="M640.493 281.063a1.221 1.221 0 0 1-.962-.487 1.892 1.892 0 0 1-.43-1.245 6.356 6.356 0 0 1 .837-2.671c.053-.113.1-.17.136-.17a.065.065 0 0 1 .023.045 6.632 6.632 0 0 1-.362 1.154 4.827 4.827 0 0 0-.362 1.539 1.061 1.061 0 0 0 .2.69.711.711 0 0 0 .6.283 2.267 2.267 0 0 0 1.4-.735q.045-.046.4-.425l1.018-1.1q1.947-2.105 3.486-2.105a1.173 1.173 0 0 1 .413.074 1.216 1.216 0 0 1 .345.192.882.882 0 0 1 .232.283.742.742 0 0 1 .085.345 1.876 1.876 0 0 1-.158.781c-.03.075-.053.113-.068.113s-.057-.038-.1-.113a1.047 1.047 0 0 0-.962-.577 4.123 4.123 0 0 0-2.693 1.539q-.43.475-.849.928l-.849.917a2.049 2.049 0 0 1-1.381.747" class="cls-9" transform="translate(-593.536 -268.251)"/>
                <path id="Path_9284" d="M535.863 251.275a.528.528 0 0 0-.725 0 .528.528 0 0 0 0 .716.527.527 0 0 0 .725 0 .528.528 0 0 0 0-.716" class="cls-9" transform="translate(-514.534 -249.504)"/>
                <path id="Path_9285" d="M608.392 251.275a.528.528 0 0 0-.725 0 .528.528 0 0 0 0 .716.527.527 0 0 0 .725 0 .528.528 0 0 0 0-.716" class="cls-9" transform="translate(-569.575 -249.504)"/>
            </g>
        </g>
        <g id="freepik--Picture--inject-2" transform="translate(905.6 285.535)">
            <path id="Path_22216" d="M386.546 416.869c0 .929-16.2 1.678-36.184 1.678s-36.192-.748-36.192-1.678 16.208-1.669 36.192-1.669 36.184.748 36.184 1.669z" class="cls-7" transform="translate(-287.854 -171.81)"/>
            <path id="Path_22217" d="M296.51 255.412h82.046l10.487-118.832h-82.037z" class="cls-11" transform="translate(-285.386 -132.884)"/>
            <path id="Path_22218" d="M323.465 387.571h-3.725l27.676-182.081h3.725z" class="cls-11" transform="translate(-288.632 -142.511)"/>
            <path id="Path_22219" d="M383.916 387.571h3.716L359.956 205.49h-3.716z" class="cls-11" transform="translate(-293.731 -142.511)"/>
            <path id="Path_22220" d="M290.62 257.3h84.739l10.5-118.841h-84.752z" class="cls-6" transform="translate(-284.564 -133.147)"/>
            <path id="Path_22221" fill="#e6e6e6" d="M290.62 257.3h84.739l10.5-118.841h-84.752z" opacity="0.8" transform="translate(-284.564 -133.147)"/>
            <path id="Path_22222" d="M370.144 251.347l9.24-104.637H308.84l-9.24 104.637z" class="cls-3" transform="translate(-285.818 -134.299)"/>
            <g id="Group_15418" clip-path="url(#clip-path)" transform="translate(13.782 12.411)">
                <path id="Path_22224" d="M394.712 200.222c-17.688-10.513-24.226 1.6-37.457 8.68-11.321 6.065-35.272-11.278-48 10.7s24.234 74.759 72.9 51.678c26.373-12.524 41.385-53.913 12.557-71.058z" class="cls-14" transform="translate(-300.596 -153.611)"/>
                <path id="Path_22226" d="M361.4 187.3c10.323 3.131 12.121-3.846 17.971-9.1 5.007-4.5 19.357 1.333 23.1-11.442s-21.681-35.024-43.571-17.207c-11.868 9.687-14.337 32.622 2.5 37.749z" class="cls-14" transform="translate(-306.556 -146.178)"/>
                <path id="Combined-Shape" d="M21.161 35.637a1.814 1.814 0 0 1 .154.17l4.5 5.674a1.031 1.031 0 0 1-.072 1.344.8.8 0 0 1-.566.24h-2.108c0 .051-.875-.051-.875 0 0 8.471 5.941 14.71 13.263 14.71a11.834 11.834 0 0 0 6.856-2.222 14.342 14.342 0 0 0 1.163-.951.792.792 0 0 1 1.179.127l1.845 2.414a1.031 1.031 0 0 1-.1 1.342l-.015.014q-.687.625-1.118.958a15.957 15.957 0 0 1-9.81 3.443c-9.763 0-17.684-8.572-17.684-19.833 0-.051-.691.051-.691 0h-2.128a.907.907 0 0 1-.853-.952 1.019 1.019 0 0 1 .211-.627l4.441-5.67a1.585 1.585 0 0 1 2.408-.181zM36.746 21c9.763 0 17.684 8.572 17.684 19.833 0 .051.691-.051.691 0h2.128a.907.907 0 0 1 .853.952 1.019 1.019 0 0 1-.211.627l-4.441 5.67a1.585 1.585 0 0 1-2.407.18 1.816 1.816 0 0 1-.154-.17l-4.5-5.674a1.031 1.031 0 0 1 .072-1.344.8.8 0 0 1 .566-.24h2.111c0-.051.875.051.875 0 0-8.471-5.941-14.71-13.263-14.71a11.9 11.9 0 0 0-7.335 2.576q-.275.213-.689.587a.792.792 0 0 1-1.185-.122L25.7 26.752a1.031 1.031 0 0 1 .1-1.342l.012-.011q.467-.429.771-.676A16.019 16.019 0 0 1 36.746 21z" class="cls-1" transform="rotate(13 -3.211 63.348)"/>
            </g>
            <path id="Path_22233" d="M300.607 251.347l9.248-104.637h-1.015l-9.24 104.637z" class="cls-11" transform="translate(-285.818 -134.299)"/>
            <path id="Path_22235" fill="#8a8a8a" d="M291.78 275.72l.327.757h83.414l.069-.757z" transform="translate(-284.726 -152.323)"/>
            <path id="Path_22237" d="M283.58 273.75l.318 2.452h84.747l-.327-2.452z" class="cls-9" transform="translate(-283.58 -152.048)"/>
        </g>
    </g>
</svg>
