<svg xmlns="http://www.w3.org/2000/svg" width="64" height="64" viewBox="0 0 64 64">
    <defs>
        <style>
            .cls-1{stroke:#000;stroke-width:.6px}
        </style>
    </defs>
    <g id="users" transform="translate(-1290 -914)">
        <g id="Group_10339" data-name="Group 10339" transform="translate(209 5)">
            <path id="man" d="M103.415 33.279v3.7a.627.627 0 1 1-1.253 0v-3.7a5.212 5.212 0 0 0-5.215-5.215 3.848 3.848 0 0 1-3.311-1.859.627.627 0 0 1 1.071-.652 2.6 2.6 0 0 0 2.24 1.257 6.465 6.465 0 0 1 6.469 6.469zM92.478 27a.627.627 0 0 1-.479.746 6 6 0 0 1-4.662-.912 3.8 3.8 0 0 1-2.837 1.23 5.212 5.212 0 0 0-5.215 5.215v3.7a.627.627 0 1 1-1.253 0v-3.7a6.465 6.465 0 0 1 6.468-6.468 2.613 2.613 0 0 0 2.62-2.611v-.165a8.4 8.4 0 0 1-4.773-7.258 2.557 2.557 0 0 1-1.964-2.477v-3.25c-.034-1.59.2-5.573 3.106-8.373C87.075-.78 92.826-.56 97.055 1.476a.628.628 0 0 1 .132 1.044 8.459 8.459 0 0 1 5.176 3.724.692.692 0 0 1 .144.493.634.634 0 0 1-.18.4 4.092 4.092 0 0 0-1.184 2.89V14.3a.627.627 0 1 1-1.253 0v-4.276a5.335 5.335 0 0 1 1.218-3.407 7.239 7.239 0 0 0-5.2-3.051l-1.1-.118a.627.627 0 0 1-.172-1.2l.5-.206c-6.525-2.275-13.5.253-13.5 9V14.3a1.294 1.294 0 0 0 .705 1.147v-4.064A4.392 4.392 0 0 1 86.729 7h7.991a4.392 4.392 0 0 1 4.387 4.387v5.131a8.394 8.394 0 0 1-10.747 7.991 3.832 3.832 0 0 1-.328 1.28 4.746 4.746 0 0 0 3.7.73.627.627 0 0 1 .746.481zm-1.754-3.4a7.137 7.137 0 0 0 7.129-7.129v-5.089a3.137 3.137 0 0 0-3.134-3.133h-7.99a3.137 3.137 0 0 0-3.129 3.134v5.084a7.137 7.137 0 0 0 7.124 7.133zm6.346 10.8h-1.88a.627.627 0 0 0 0 1.253h1.88a.627.627 0 0 0 0-1.253z" class="cls-1" transform="translate(1022.173 922)"/>
            <path id="man-2" d="M95.657 23.107v2.571a.435.435 0 1 1-.87 0v-2.571a3.619 3.619 0 0 0-3.621-3.621 2.672 2.672 0 0 1-2.3-1.291.435.435 0 0 1 .743-.453 1.808 1.808 0 0 0 1.555.873 4.489 4.489 0 0 1 4.492 4.491zm-7.594-4.362a.435.435 0 0 1-.333.518 4.165 4.165 0 0 1-3.237-.633 2.639 2.639 0 0 1-1.969.856 3.619 3.619 0 0 0-3.624 3.621v2.571a.435.435 0 1 1-.87 0v-2.571a4.489 4.489 0 0 1 4.491-4.491 1.814 1.814 0 0 0 1.822-1.816v-.115a5.83 5.83 0 0 1-3.314-5.039 1.776 1.776 0 0 1-1.364-1.72V7.672a7.972 7.972 0 0 1 2.157-5.813c2.49-2.4 6.483-2.248 9.419-.834a.436.436 0 0 1 .092.725 5.873 5.873 0 0 1 3.594 2.586.481.481 0 0 1 .1.342.44.44 0 0 1-.125.276 2.841 2.841 0 0 0-.822 2.007v2.967a.435.435 0 1 1-.87 0V6.96a3.7 3.7 0 0 1 .845-2.365 5.027 5.027 0 0 0-3.608-2.118l-.765-.082a.436.436 0 0 1-.119-.835l.348-.143c-4.53-1.579-9.375.175-9.375 6.251v2.26a.9.9 0 0 0 .49.8V7.9a3.05 3.05 0 0 1 3.046-3.046h5.548A3.049 3.049 0 0 1 92.665 7.9v3.563a5.828 5.828 0 0 1-7.465 5.554 2.661 2.661 0 0 1-.228.889 3.3 3.3 0 0 0 2.569.507.435.435 0 0 1 .518.333zm-1.218-2.362a4.955 4.955 0 0 0 4.95-4.95V7.9a2.178 2.178 0 0 0-2.176-2.176h-5.548A2.178 2.178 0 0 0 81.895 7.9v3.53a4.955 4.955 0 0 0 4.95 4.953zm4.406 7.5h-1.306a.435.435 0 0 0 0 .87h1.305a.435.435 0 0 0 0-.87z" class="cls-1" data-name="man" transform="translate(1046.343 929.676)"/>
            <path id="man-3" d="M95.657 23.107v2.571a.435.435 0 1 1-.87 0v-2.571a3.619 3.619 0 0 0-3.621-3.621 2.672 2.672 0 0 1-2.3-1.291.435.435 0 0 1 .743-.453 1.808 1.808 0 0 0 1.555.873 4.489 4.489 0 0 1 4.492 4.491zm-7.594-4.362a.435.435 0 0 1-.333.518 4.165 4.165 0 0 1-3.237-.633 2.639 2.639 0 0 1-1.969.856 3.619 3.619 0 0 0-3.624 3.621v2.571a.435.435 0 1 1-.87 0v-2.571a4.489 4.489 0 0 1 4.491-4.491 1.814 1.814 0 0 0 1.822-1.816v-.115a5.83 5.83 0 0 1-3.314-5.039 1.776 1.776 0 0 1-1.364-1.72V7.672a7.972 7.972 0 0 1 2.157-5.813c2.49-2.4 6.483-2.248 9.419-.834a.436.436 0 0 1 .092.725 5.873 5.873 0 0 1 3.594 2.586.481.481 0 0 1 .1.342.44.44 0 0 1-.125.276 2.841 2.841 0 0 0-.822 2.007v2.967a.435.435 0 1 1-.87 0V6.96a3.7 3.7 0 0 1 .845-2.365 5.027 5.027 0 0 0-3.608-2.118l-.765-.082a.436.436 0 0 1-.119-.835l.348-.143c-4.53-1.579-9.375.175-9.375 6.251v2.26a.9.9 0 0 0 .49.8V7.9a3.05 3.05 0 0 1 3.046-3.046h5.548A3.049 3.049 0 0 1 92.665 7.9v3.563a5.828 5.828 0 0 1-7.465 5.554 2.661 2.661 0 0 1-.228.889 3.3 3.3 0 0 0 2.569.507.435.435 0 0 1 .518.333zm-1.218-2.362a4.955 4.955 0 0 0 4.95-4.95V7.9a2.178 2.178 0 0 0-2.176-2.176h-5.548A2.178 2.178 0 0 0 81.895 7.9v3.53a4.955 4.955 0 0 0 4.95 4.953zm4.406 7.5h-1.306a.435.435 0 0 0 0 .87h1.305a.435.435 0 0 0 0-.87z" class="cls-1" data-name="man" transform="translate(1005.967 929.676)"/>
        </g>
        <path id="Rectangle_4787" fill="none" d="M0 0H64V64H0z" data-name="Rectangle 4787" transform="translate(1290 914)"/>
    </g>
</svg>
