<svg xmlns="http://www.w3.org/2000/svg" width="20.5" height="24.778" viewBox="0 0 20.5 24.778">
    <g id="ver_code" transform="translate(-2.75 -.75)">
        <g id="security-check" transform="translate(3 1)">
            <path id="shape" fill="#a8b2b5" stroke="#fff" stroke-width="0.5px" d="M23 14.333c0 3.366-2.983 6.828-8.8 10.557a2.222 2.222 0 0 1-2.4 0C5.983 21.162 3 17.7 3 14.333v-7.74a3.333 3.333 0 0 1 1.485-2.774A15.256 15.256 0 0 1 13 1a15.256 15.256 0 0 1 8.515 2.819A3.333 3.333 0 0 1 23 6.593zm-2.222 0v-7.74a1.111 1.111 0 0 0-.495-.925A13.063 13.063 0 0 0 13 3.222a13.063 13.063 0 0 0-7.283 2.446 1.111 1.111 0 0 0-.495.925v7.741c0 2.379 2.543 5.331 7.778 8.686 5.235-3.356 7.778-6.307 7.778-8.687zM9.072 11.786l2.357 2.357 5.5-5.5a1.111 1.111 0 0 1 1.571 1.571L12.214 16.5a1.111 1.111 0 0 1-1.571 0L7.5 13.357a1.111 1.111 0 0 1 1.571-1.571z" transform="translate(-3 -1)"/>
        </g>
    </g>
</svg>
