<svg xmlns="http://www.w3.org/2000/svg" width="18.001" height="18.4" viewBox="0 0 18.001 18.4">
    <path fill="#089df2" stroke="rgba(0,0,0,0)" stroke-miterlimit="10" d="M1706.2 10624.4a3.205 3.205 0 0 1-3.2-3.2v-10a3.2 3.2 0 0 1 3.2-3.2h3.8v1.2h-3.8a2 2 0 0 0-2 2v10a2 2 0 0 0 2 2h10a2 2 0 0 0 2-2v-4.2h1.2v4.2a3.206 3.206 0 0 1-3.2 3.2zm5.642-8.545l-.7-.7a.5.5 0 0 1 0-.7l5.226-5.224-1.048-1.046a.5.5 0 0 1 .307-.84l3.832-.349a.493.493 0 0 1 .536.536l-.349 3.831a.478.478 0 0 1-.141.307.506.506 0 0 1-.181.114.494.494 0 0 1-.515-.114l-1.045-1.048-5.226 5.229a.5.5 0 0 1-.349.142.5.5 0 0 1-.348-.138z" transform="translate(-1702.5 -10606.5)"/>
</svg>
