<svg xmlns="http://www.w3.org/2000/svg" width="28" height="28" viewBox="0 0 28 28">
    <defs>
        <style>
            .cls-1{fill:#141414}
        </style>
    </defs>
    <g id="wallet" transform="translate(-1512 -729)">
        <g id="wallet-2" data-name="wallet" transform="translate(1515.5 733.667)">
            <path id="Path_19933" d="M19.079 23.382h-.261v-2.438A1.886 1.886 0 0 0 16.9 19.1H2.966a2.927 2.927 0 0 0-2.951 2.569c-.022.1-.014-.805-.014 13.246a2.912 2.912 0 0 0 2.965 2.85h16.113A1.886 1.886 0 0 0 21 35.919V25.228a1.886 1.886 0 0 0-1.921-1.846zM2.966 20.366H16.9a.591.591 0 0 1 .6.578v2.438H2.966a1.621 1.621 0 0 1-1.644-1.508 1.62 1.62 0 0 1 1.644-1.508zM19.079 36.5H2.966a1.617 1.617 0 0 1-1.646-1.585V24.169a3.034 3.034 0 0 0 1.646.48h16.113a.591.591 0 0 1 .6.578V27.8h-4.963a2.949 2.949 0 1 0 0 5.892h4.964v2.229a.591.591 0 0 1-.601.579zm.6-4.075h-4.963a1.68 1.68 0 1 1 0-3.357h4.964z" class="cls-1" data-name="Path 19933" transform="translate(0 -19.098)"/>
            <ellipse id="Ellipse_294" cx=".956" cy=".919" class="cls-1" data-name="Ellipse 294" rx=".956" ry=".919" transform="translate(16.004 10.727)"/>
        </g>
        <path id="Rectangle_5050" fill="none" d="M0 0H28V28H0z" data-name="Rectangle 5050" transform="translate(1512 729)"/>
    </g>
</svg>
