<svg xmlns="http://www.w3.org/2000/svg" width="32" height="24.002" viewBox="0 0 32 24.002">
    <g>
        <path fill="#6325c1" d="M6 24a6.007 6.007 0 0 1-6-6V6a6.007 6.007 0 0 1 6-6h17.767a6.007 6.007 0 0 1 6 6v.751h-5.912a5.251 5.251 0 0 0 0 10.5h5.912V18a6.007 6.007 0 0 1-6 6zm17.843-8.251a3.75 3.75 0 0 1 0-7.5h6.549A1.61 1.61 0 0 1 32 9.858v4.286a1.61 1.61 0 0 1-1.607 1.607zM22.7 12a1.861 1.861 0 1 0 1.861-1.875A1.87 1.87 0 0 0 22.7 12z" transform="translate(-523.112 -526.664) translate(523.112 526.664)"/>
    </g>
</svg>
