<svg xmlns="http://www.w3.org/2000/svg" id="prefix__youtube" width="24" height="16.804" viewBox="0 0 24 16.804">
    <path id="prefix__Path_9253" fill="#141414" d="M23.506 2.629A3.007 3.007 0 0 0 21.39.514C19.512 0 12 0 12 0S4.488 0 2.609.494A3.068 3.068 0 0 0 .494 2.629 31.684 31.684 0 0 0 0 8.4a31.568 31.568 0 0 0 .494 5.773A3.007 3.007 0 0 0 2.61 16.29c1.9.514 9.39.514 9.39.514s7.512 0 9.39-.494a3.007 3.007 0 0 0 2.115-2.115A31.685 31.685 0 0 0 24 8.422a30.074 30.074 0 0 0-.494-5.792zm0 0" data-name="Path 9253"/>
    <path id="prefix__Path_9254" fill="#fff" d="M204.969 109.68l6.247-3.6-6.247-3.6zm0 0" data-name="Path 9254" transform="translate(-195.361 -97.68)"/>
</svg>
