<svg xmlns="http://www.w3.org/2000/svg" width="640" height="120" viewBox="0 0 640 120">
    <defs>
        <radialGradient id="radial-gradient" cx=".5" cy=".5" r="1.054" gradientTransform="matrix(1 -.005 .013 2.553 -.006 -.774)" gradientUnits="objectBoundingBox">
            <stop offset="0" stop-color="#6214af"/>
            <stop offset="1" stop-color="#4b1897"/>
        </radialGradient>
        <style>
            .cls-2{fill:#ff41aa}.cls-3{fill:#ff0e41}.cls-4{fill:#00d339}.cls-5{fill:#fff}.cls-6{fill:#ffaf00}.cls-7{fill:#008df0}
        </style>
    </defs>
    <g id="congratulations" transform="translate(15257 -2672)">
        <path id="Rectangle_16807" fill="url(#radial-gradient)" d="M0 0H640V120H0z" transform="translate(-15257 2672)"/>
        <path id="Path_21629" d="M142.453 85.643a4.012 4.012 0 0 1-3.461-1.784.5.5 0 0 1 .854-.521c.9 1.463 3.093 1.626 4.461.794a5.643 5.643 0 0 0 2.416-4.532 16.5 16.5 0 0 0-.879-5.546l-.01-.035a6.907 6.907 0 0 1-2.176.423 4.673 4.673 0 0 1-3.15-.952 2.938 2.938 0 0 1-.929-3.265 2.5 2.5 0 0 1 1.74-1.444 3.683 3.683 0 0 1 3.1.619 6.558 6.558 0 0 1 2.028 3.211 8.856 8.856 0 0 0 4.055-7.185c.079-4.352-2.61-8.21-4.881-10.679a.5.5 0 0 1 .736-.677c2.394 2.6 5.23 6.691 5.145 11.375a9.727 9.727 0 0 1-4.746 8.158l.051.177a17.335 17.335 0 0 1 .915 5.887 6.636 6.636 0 0 1-2.894 5.319 4.576 4.576 0 0 1-2.375.657zm-.253-15.974a2.473 2.473 0 0 0-.628.079 1.527 1.527 0 0 0-1.072.861 1.947 1.947 0 0 0 .649 2.115 3.646 3.646 0 0 0 2.477.718 5.757 5.757 0 0 0 1.912-.391 5.729 5.729 0 0 0-1.738-2.861 2.667 2.667 0 0 0-1.6-.521z" class="cls-2" transform="rotate(68 -9487.729 -9891.164)"/>
        <path id="Path_21632" d="M232.582 52.657a.5.5 0 0 1-.284-.912 5.929 5.929 0 0 0 2.233-5.217 9.8 9.8 0 0 0-.715-3.045 6.811 6.811 0 0 1-2.968.4 5.508 5.508 0 0 1-4.191-2.326 3.268 3.268 0 0 1-.52-2.91 2.54 2.54 0 0 1 1.4-1.433 3.542 3.542 0 0 1 2.7-.021 7 7 0 0 1 3.041 3.047 21.521 21.521 0 0 1 1.034 1.9 4.813 4.813 0 0 0 1.053-.829c2.017-2.13 2.225-5.838.483-8.626a11.487 11.487 0 0 0-7.883-4.855.5.5 0 0 1-.4-.58.5.5 0 0 1 .579-.405 12.488 12.488 0 0 1 8.558 5.311c1.974 3.161 1.713 7.393-.606 9.842a5.839 5.839 0 0 1-1.373 1.067 10.8 10.8 0 0 1 .805 3.408 6.845 6.845 0 0 1-2.664 6.1.494.494 0 0 1-.282.084zm-3.665-14.724a2.456 2.456 0 0 0-.976.2 1.547 1.547 0 0 0-.865.862 2.327 2.327 0 0 0 .413 2.01 4.516 4.516 0 0 0 3.444 1.884 5.853 5.853 0 0 0 2.478-.326 20.292 20.292 0 0 0-.982-1.8 6.122 6.122 0 0 0-2.571-2.644 2.449 2.449 0 0 0-.941-.186z" class="cls-3" transform="rotate(33 -11791.265 -24122.852)"/>
        <g id="Group_14516" transform="translate(-15240 2703)">
            <path id="Path_21633" d="M61.157 87.669a.5.5 0 0 1-.152-.976 7.317 7.317 0 0 0 4.973-6.278 6.766 6.766 0 0 0-.019-1.233 7.594 7.594 0 0 1-7.369-1.844c-.991-1.014-1.678-2.625-.979-3.938.857-1.607 3.139-1.692 4.852-.842a8.343 8.343 0 0 1 4.258 5.285 6.4 6.4 0 0 0 .639-.338 7.986 7.986 0 0 0 3.6-7.573c-.329-3.245-2.339-5.895-4.466-8.7-2.064-2.722-4.2-5.536-4.652-8.951a10.231 10.231 0 0 1 4.779-9.881.5.5 0 1 1 .513.858 9.208 9.208 0 0 0-4.3 8.9c.42 3.153 2.381 5.74 4.458 8.479 2.117 2.792 4.306 5.68 4.664 9.2a9.006 9.006 0 0 1-4.079 8.53 7.445 7.445 0 0 1-.954.486 7.719 7.719 0 0 1 .051 1.644 8.338 8.338 0 0 1-5.667 7.155.5.5 0 0 1-.15.017zm-.92-14.646a1.861 1.861 0 0 0-1.743.848c-.462.866.075 2.014.811 2.768a6.68 6.68 0 0 0 6.475 1.548 7.325 7.325 0 0 0-3.761-4.733 4.122 4.122 0 0 0-1.782-.431z" class="cls-4"/>
        </g>
        <path id="Path_21634" d="M268.624 144.862a3.908 3.908 0 0 1-.443-.025.5.5 0 0 1 .114-.993c2 .228 3.72-1.619 4.08-3.487a8.534 8.534 0 0 0-1.483-5.959c-.52-.862-1.125-1.7-1.71-2.514a33.021 33.021 0 0 1-2.006-3.012c-.954-1.686-1.943-4.226-1.233-6.747a6.355 6.355 0 0 1 7.223-4.375.5.5 0 1 1-.206.978 5.4 5.4 0 0 0-6.054 3.668 8.129 8.129 0 0 0 1.14 5.984 32.33 32.33 0 0 0 1.947 2.919c.6.829 1.214 1.685 1.756 2.582a9.479 9.479 0 0 1 1.607 6.665c-.419 2.173-2.381 4.316-4.732 4.316z" class="cls-2" transform="rotate(79.98 -8754.454 -7488.08)"/>
        <path id="Path_21642" d="M239.183 275.206a2.637 2.637 0 0 0-.457 2.319 9.35 9.35 0 0 1 4.2.762 3.519 3.519 0 0 1 .771-2.324 11.211 11.211 0 0 0-4.514-.757z" class="cls-5" transform="rotate(79.98 -8742.843 -7500.866)"/>
        <path id="Path_21644" d="M-6.962 36.86a2.474 2.474 0 0 0-1.2 1.867 8.8 8.8 0 0 1 3.409 2.12 3.3 3.3 0 0 1 1.478-1.763 10.538 10.538 0 0 0-3.687-2.224z" class="cls-5" transform="translate(-15240 2703)"/>
        <path id="Path_21645" d="M318.434 73.814a2.056 2.056 0 0 0-.631-1.623 12.653 12.653 0 0 1-2.953.471 1.883 1.883 0 0 1 .18.945 11.315 11.315 0 0 1 3.404.207z" class="cls-5" transform="rotate(79.98 -8754.454 -7488.08)"/>
        <path id="Path_21646" d="M316.875 6.883a13.78 13.78 0 0 0-4.33-2.109 5.532 5.532 0 0 0-.019 2.928 4.611 4.611 0 0 1 2.674 1.247 3.1 3.1 0 0 1 1.675-2.066z" class="cls-5" transform="translate(-15227 2691)"/>
        <path id="Path_21647" d="M237.406-47.532a7.8 7.8 0 0 0-4.165-.315 3.81 3.81 0 0 0-.144 2.527 7.13 7.13 0 0 1 4.1.345 2.665 2.665 0 0 1 .209-2.557z" class="cls-5" transform="translate(-15123 2835)"/>
        <path id="Path_21651" d="M166.005-34.371a1.816 1.816 0 0 0-1.623.111 6.452 6.452 0 0 1 .246 2.931 2.429 2.429 0 0 1 1.683.1 7.726 7.726 0 0 0-.306-3.142z" class="cls-5" transform="translate(-15231 2714)"/>
        <path id="Path_21653" d="M280.609 258.842a3.457 3.457 0 0 0 .355 2.906 21.3 21.3 0 0 1 5.008.456 3.181 3.181 0 0 1 .1-1.615 19.007 19.007 0 0 1-5.463-1.747z" class="cls-5" transform="rotate(79.98 -8773.178 -7488.618)"/>
        <path id="Path_21655" d="M45.73 19.115a2.337 2.337 0 0 1-.894.437 7.347 7.347 0 0 1 1.179 1.589 1.319 1.319 0 0 0 .9-.325 8.681 8.681 0 0 0-1.185-1.701z" class="cls-5" transform="translate(-15240 2703)"/>
        <path id="Path_21656" d="M269.726 165.593a4.534 4.534 0 0 0-.628-2.79 6.758 6.758 0 0 1-1.913-.78c.144.665-.085 1.075-.786 1.741a11.738 11.738 0 0 1 3.327 1.829z" class="cls-5" transform="rotate(79.98 -8754.454 -7488.08)"/>
        <path id="Path_21657" d="M31.155-22.093a2.229 2.229 0 0 1 1.145 1.109 7.8 7.8 0 0 0 1.183-2.286 3.575 3.575 0 0 0-1.411-.6 4.534 4.534 0 0 1-.917 1.777z" class="cls-5" transform="translate(-15240 2703)"/>
        <path id="Path_21660" d="M203.414 22.68a1.232 1.232 0 0 0-1.121.512 1.864 1.864 0 0 0 .507 1.108 2.8 2.8 0 0 1 1.55.093 4.844 4.844 0 0 1-.936-1.713z" class="cls-5" transform="translate(-15210 2673)"/>
        <path id="Path_21661" d="M107.816-.749a1.7 1.7 0 0 0 1.439-.894 2.567 2.567 0 0 0-.884-1.424 3.835 3.835 0 0 1-2.128.144 6.693 6.693 0 0 1 1.573 2.174z" class="cls-5" transform="translate(-15240 2703)"/>
        <path id="Path_21664" d="M310.143 137.258a10.153 10.153 0 0 0 3.189 1.534 4.058 4.058 0 0 0 0-2.152 3.381 3.381 0 0 1-1.969-.906 2.283 2.283 0 0 1-1.22 1.524z" class="cls-5" transform="rotate(79.98 -8754.454 -7488.08)"/>
        <path id="Path_21666" d="M276.125 225.8a5.686 5.686 0 0 0-2.957-.738 2.781 2.781 0 0 0-.414 1.8 5.212 5.212 0 0 1 2.9.752 1.943 1.943 0 0 1 .471-1.814z" class="cls-5" transform="rotate(79.98 -8775.754 -7484.426)"/>
        <path id="Path_21670" d="M283.2 145.738a2.017 2.017 0 0 0-.424-1.2 3 3 0 0 1-.887-.244c.1.286.019.479-.256.811a5.221 5.221 0 0 1 1.567.633z" class="cls-5" transform="rotate(79.98 -8754.454 -7488.08)"/>
        <path id="Path_21671" d="M326.287 169.444c-.215-.838-.085-1.766.947-3.6a4.428 4.428 0 0 0-2.787-.071 7.89 7.89 0 0 0-.7 3.923 4.05 4.05 0 0 1 2.54-.252z" class="cls-5" transform="rotate(79.98 -8754.454 -7488.08)"/>
        <path id="Path_21673" d="M258.579 32.648a1.32 1.32 0 0 0 .045.931 8.291 8.291 0 0 1 2.98-.231 1.353 1.353 0 0 1 .09-.878 7.37 7.37 0 0 0-3.115.178z" class="cls-5" transform="translate(-15210 2673)"/>
        <path id="Path_21674" d="M193.441-47.675a1.978 1.978 0 0 0-.887.877 2.949 2.949 0 0 1 .154.887c.212-.207.417-.217.825-.112a5.083 5.083 0 0 1-.092-1.652z" class="cls-5" transform="translate(-15210 2744)"/>
        <path id="Path_21675" d="M255.4 192.709a2.856 2.856 0 0 0 .428-2.384 17.614 17.614 0 0 1-3.847-1.583 2.63 2.63 0 0 1-.472 1.253 15.722 15.722 0 0 1 3.891 2.714z" class="cls-5" transform="rotate(79.98 -8883.762 -7562.354)"/>
        <path id="Path_21676" d="M223.646-27.886a5 5 0 0 0-1.918-1.877 2.444 2.444 0 0 0-1.116 1.184 4.576 4.576 0 0 1 1.873 1.864 1.713 1.713 0 0 1 1.161-1.171z" class="cls-5" transform="translate(-15240 2703)"/>
        <path id="Path_21678" d="M105.7 23.552a5.6 5.6 0 0 0 .908 1.722 2.234 2.234 0 0 0 .706-.95 1.867 1.867 0 0 1-.574-1.046 1.257 1.257 0 0 1-1.04.274z" class="cls-5" transform="translate(-15240 2703)"/>
        <path id="Path_21681" d="M265.323 98.543a2.521 2.521 0 0 0-2.511.217 3.81 3.81 0 0 0 .214 2.485 5.72 5.72 0 0 1 2.921 1.243 9.949 9.949 0 0 1-.624-3.945z" class="cls-5" transform="rotate(79.98 -8751.88 -7480.354)"/>
        <path id="Path_21683" d="M270.088-2.993a6.369 6.369 0 0 1 3.486 1.331 1.731 1.731 0 0 1 .922-1.044 7.617 7.617 0 0 0-3.743-1.818 3.185 3.185 0 0 0-.665 1.531z" class="cls-5" transform="translate(-15243 2688)"/>
        <path id="Path_21684" d="M82.73-26.231a3.929 3.929 0 0 1-1.035-1.3 12.208 12.208 0 0 1-2.167 2.5 2.206 2.206 0 0 0 .858 1.357 14.425 14.425 0 0 0 2.344-2.557z" class="cls-5" transform="translate(-15240 2703)"/>
        <path id="Path_21685" d="M312.608 203.977a1.524 1.524 0 0 1-1.249.241 12.3 12.3 0 0 0 .849 3.438 2.908 2.908 0 0 0 1.542-.27 7 7 0 0 1-1.142-3.409z" class="cls-5" transform="rotate(79.98 -8754.454 -7488.08)"/>
        <path id="Path_21693" d="M252.5 240.612a4.019 4.019 0 0 0-.594 2.467 6 6 0 0 1 1.217 1.371c.146-.585.489-.822 1.309-1.078a10.4 10.4 0 0 1-1.932-2.76z" class="cls-5" transform="rotate(79.98 -8736.576 -7503.077)"/>
        <path id="Path_21695" d="M189.508-9.076a5.42 5.42 0 0 0 1.733.748 2.162 2.162 0 0 0-.045-1.147 1.806 1.806 0 0 1-1.069-.44 1.212 1.212 0 0 1-.619.839z" class="cls-5" transform="translate(-15240 2703)"/>
        <path id="Path_21697" d="M66.107-16a.605.605 0 0 1 .5-.049 4.838 4.838 0 0 0-.207-1.391 1.149 1.149 0 0 0-.617.051A2.768 2.768 0 0 1 66.107-16z" class="cls-5" transform="translate(-15240 2703)"/>
        <path id="Path_21699" d="M302.647 58.839a1.654 1.654 0 0 1 1.226-.638 13.354 13.354 0 0 0-1.954-3.317 3.168 3.168 0 0 0-1.521.761 7.62 7.62 0 0 1 2.249 3.194z" class="cls-5" transform="translate(-15357 2638)"/>
        <path id="Path_21701" d="M179.438-53.97a3.4 3.4 0 0 0-2.063.6 5.093 5.093 0 0 1-.5 1.47c.492-.138.81.015 1.341.51a8.831 8.831 0 0 1 1.222-2.58z" class="cls-5" transform="translate(-15289 2748)"/>
        <path id="Path_21702" d="M-12.367-10.361a1.533 1.533 0 0 0 1.029-.337 9.647 9.647 0 0 1-1.178-3.266 1.568 1.568 0 0 1-1.011.17 8.57 8.57 0 0 0 1.16 3.433z" class="cls-5" transform="translate(-15240 2703)"/>
        <path id="Path_21704" d="M267.862 225.73c-.569-.3-1.014-.841-1.505-2.331a3.3 3.3 0 0 0-1.439 1.5 5.877 5.877 0 0 0 1.806 2.357 3.014 3.014 0 0 1 1.138-1.526z" class="cls-6" transform="rotate(79.98 -8844.658 -7542.363)"/>
        <path id="Path_21705" d="M282.162 220.887a2.992 2.992 0 0 1 .575 2.43 24.08 24.08 0 0 0 6.673-1.948 5.723 5.723 0 0 0-.656-3 13.753 13.753 0 0 1-6.592 2.518z" class="cls-3" transform="rotate(79.98 -8772.235 -7474.18)"/>
        <path id="Path_21706" d="M10.894 26.062a3 3 0 0 1 .574 2.43 24.123 24.123 0 0 0 6.674-1.949 5.713 5.713 0 0 0-.657-3 13.755 13.755 0 0 1-6.591 2.519z" class="cls-3" transform="translate(-15240 2703)"/>
        <path id="Path_21707" d="M241.417 195.474a1.611 1.611 0 0 0-.4 1.059 10.049 10.049 0 0 1 3.432 1.185 1.64 1.64 0 0 1 .525-.935 8.963 8.963 0 0 0-3.557-1.309z" class="cls-6" transform="rotate(79.98 -8742.536 -7498.078)"/>
        <path id="Path_21708" d="M254.243 238.893a2.352 2.352 0 0 1 2.251-.818 7.653 7.653 0 0 0-2.056-2.81 2.138 2.138 0 0 0-1.94.883 5.613 5.613 0 0 1 1.745 2.745z" class="cls-6" transform="rotate(79.98 -8720.332 -7499.445)"/>
        <path id="Path_21709" d="M296.5 150.679a3.8 3.8 0 0 1-1.47-1.679 1.035 1.035 0 0 1-.779.293 4.563 4.563 0 0 0 1.466 2.009 1.915 1.915 0 0 0 .783-.623z" class="cls-7" transform="rotate(79.98 -8775.582 -7492.693)"/>
        <path id="Path_21710" d="M283.087 158.4a10.485 10.485 0 0 1-3.329-2.407 3.363 3.363 0 0 0-1.112 1.832 13.893 13.893 0 0 0 3.252 2.69c.117-1.155.363-1.727 1.189-2.115z" class="cls-4" transform="rotate(79.98 -8746.742 -7443.788)"/>
        <path id="Path_21711" d="M258.185 73.557c.9.8 1.929.919 3.574.705a14.425 14.425 0 0 1 1.175-6.479c-1.209.091-2.049-.235-3.582-1.189a17.288 17.288 0 0 0-1.167 6.963z" class="cls-6" transform="rotate(79.98 -8754.454 -7488.08)"/>
        <path id="Path_21712" d="M303.963 151.1a3.14 3.14 0 0 0 .321-2.643 19.43 19.43 0 0 1-4.321-1.5 2.9 2.9 0 0 1-.44 1.4 17.264 17.264 0 0 1 4.44 2.743z" class="cls-6" transform="rotate(79.98 -8738.167 -7440.828)"/>
        <path id="Path_21713" d="M74.165 262.654c.511 1.009 1.367 1.47 2.878 1.852a13.549 13.549 0 0 1 3.267-5.253 5.1 5.1 0 0 1-2.718-2.278 16.251 16.251 0 0 0-3.427 5.679z" class="cls-6" transform="translate(-14936 2517)"/>
        <path id="Path_21714" d="M276.661 24.276c.511 1.008 1.367 1.469 2.879 1.851a13.545 13.545 0 0 1 3.267-5.253 5.087 5.087 0 0 1-2.718-2.277 16.235 16.235 0 0 0-3.428 5.679z" class="cls-6" transform="translate(-15210 2666)"/>
        <path id="Path_21715" d="M104.8 9.564a3.16 3.16 0 0 0-2.5.972 19.556 19.556 0 0 1 .725 4.551 2.907 2.907 0 0 1 1.457-.277 17.442 17.442 0 0 1 .318-5.246z" class="cls-2" transform="translate(-15347 2767)"/>
        <path id="Path_21716" d="M52.617 10.4a21.266 21.266 0 0 0-3.25 6.674 8.538 8.538 0 0 0 4.513.03c.1-1.574.758-2.609 1.922-4.122a4.777 4.777 0 0 1-3.185-2.582z" class="cls-6" transform="translate(-15265 2683)"/>
        <path id="Path_21718" d="M274.391 45.859a3.032 3.032 0 0 1 1.208-.426 9.457 9.457 0 0 1-1.274-2.209 1.7 1.7 0 0 0-1.2.283 11.126 11.126 0 0 0 1.266 2.352z" class="cls-4" transform="translate(-15357 2638)"/>
        <path id="Path_21719" d="M285.931 97.27c-1.409.91-3.2 1.24-7.2.467a8.6 8.6 0 0 0 1.579 5.168 15.294 15.294 0 0 0 7.645-1.117 7.848 7.848 0 0 1-2.024-4.518z" class="cls-3" transform="rotate(79.98 -8759.455 -7482.122)"/>
        <path id="Path_21720" d="M226 243.357a3.031 3.031 0 0 1 1.245 1.262.826.826 0 0 1 .6-.269 3.63 3.63 0 0 0-1.259-1.524 1.532 1.532 0 0 0-.586.531z" class="cls-6" transform="rotate(79.98 -8742.843 -7500.866)"/>
        <path id="Path_21723" d="M245.467 42.135a5.323 5.323 0 0 0 4.478-.548 32.839 32.839 0 0 1 .7-7.718 4.9 4.9 0 0 1-2.489-.152 29.3 29.3 0 0 1-2.689 8.418z" class="cls-3" transform="translate(-15258 2742)"/>
        <path id="Path_21724" d="M284.624 177.387a6.147 6.147 0 0 0-3.914-3.44 38.02 38.02 0 0 1-7.2 5.325 5.657 5.657 0 0 1 1.782 2.264 33.78 33.78 0 0 1 9.332-4.149z" class="cls-6" transform="rotate(79.98 -8890.59 -7610.433)"/>
        <path id="Path_21726" d="M176.28 47.2a6.994 6.994 0 0 0-4.3.968 10.47 10.47 0 0 1-1.2 2.949c1.023-.223 1.656.13 2.682 1.211a18.131 18.131 0 0 1 2.818-5.128z" class="cls-4" transform="translate(-15240 2723)"/>
        <path id="Path_21728" d="M224.766 221.138c.2.76.68 1.152 1.485 1.768a20.523 20.523 0 0 1 5.527-4.926 3.362 3.362 0 0 1-1.141-1.866 18.257 18.257 0 0 0-5.871 5.024z" class="cls-7" transform="rotate(79.98 -8754.454 -7488.08)"/>
        <path id="Path_21729" d="M283.7 192.307a2.915 2.915 0 0 1 2.031-1.333 23.431 23.431 0 0 0-4-5.455 5.548 5.548 0 0 0-2.526 1.6 13.386 13.386 0 0 1 4.495 5.188z" class="cls-3" transform="rotate(79.98 -8890.59 -7610.433)"/>
        <path id="Path_21733" d="M238.847 144.277a7.007 7.007 0 0 0 1.058-2.2 2.817 2.817 0 0 0-1.485 0 2.331 2.331 0 0 1-.625 1.359 1.576 1.576 0 0 1 1.052.841z" class="cls-3" transform="rotate(79.98 -8754.454 -7488.08)"/>
        <path id="Path_21734" d="M153.065 18.618a15.6 15.6 0 0 0 2.364-4.915 6.269 6.269 0 0 0-3.316-.006 5.21 5.21 0 0 1-1.4 3.036 3.514 3.514 0 0 1 2.352 1.885z" class="cls-3" transform="translate(-15314 2692)"/>
        <path id="Path_21736" d="M220.89 42.242a8.769 8.769 0 0 0-1.139 4.557 4.287 4.287 0 0 0 2.774.638 8.024 8.024 0 0 1 1.159-4.476 3 3 0 0 1-2.794-.719z" class="cls-4" transform="translate(-15357 2638)"/>
        <path id="Path_21737" d="M256.881 183.388a3.839 3.839 0 0 1-.934 2.052c.341.187.525.354.595.6a4.613 4.613 0 0 0 1.238-2.189 1.933 1.933 0 0 0-.899-.463z" class="cls-4" transform="rotate(79.98 -8742.536 -7498.078)"/>
        <path id="Path_21739" d="M265.816 103.892a2.163 2.163 0 0 1 1.736.487 17.384 17.384 0 0 0 1.1-4.895 4.129 4.129 0 0 0-2.124-.635 9.928 9.928 0 0 1-.712 5.043z" class="cls-3" transform="rotate(79.98 -8776.392 -7484.159)"/>
        <path id="Path_21740" d="M160.161 37.493a3.109 3.109 0 0 0-1.852.654 4.63 4.63 0 0 1-.378 1.368c.442-.152.74-.03 1.251.4a8.044 8.044 0 0 1 .979-2.422z" class="cls-7" transform="translate(-15240 2723)"/>
        <path id="Path_21741" d="M179.262 4.27c-1.292.331-2.723.131-5.549-1.46a6.826 6.826 0 0 0-.109 4.3 12.149 12.149 0 0 0 6.046 1.081 6.24 6.24 0 0 1-.388-3.921z" class="cls-4" transform="translate(-15264 2688)"/>
        <path id="Path_21742" d="M19.959 63.573a3.03 3.03 0 0 1 .8-1.585c-.263-.157-.4-.294-.449-.486a3.631 3.631 0 0 0-1.042 1.681 1.515 1.515 0 0 0 .691.39z" class="cls-6" transform="translate(-15240 2703)"/>
        <path id="Path_21743" d="M72.2 58.243a2.037 2.037 0 0 0 1.435-.068 12.8 12.8 0 0 1-.356-4.594 2.084 2.084 0 0 1-1.354-.139 11.374 11.374 0 0 0 .275 4.801z" class="cls-2" transform="translate(-15240 2703)"/>
        <path id="Path_21745" d="M197.328 58.224a4.407 4.407 0 0 0-3.674-.659 27.107 27.107 0 0 1-2.44 5.929 4.051 4.051 0 0 1 1.931.728 24.241 24.241 0 0 1 4.183-5.998z" class="cls-7" transform="translate(-15240 2723)"/>
        <path id="Path_21747" d="M250.436 159.458a7.431 7.431 0 0 0 3.868-2.8 8 8 0 0 1-3.336-3.746 11.31 11.31 0 0 0-4.109 2.064 14.976 14.976 0 0 1 3.577 4.482z" class="cls-4" transform="rotate(79.98 -8754.454 -7488.08)"/>
        <path id="Path_21750" d="M247.143 108.915a4.89 4.89 0 0 1-.719 3.421 17.012 17.012 0 0 0 5.617-.471 7.8 7.8 0 0 0-.53-3.317c-1.111.473-2.328.461-4.368.367z" class="cls-4" transform="rotate(79.98 -8754.454 -7488.08)"/>
        <path id="Path_21751" d="M121.807 51.106a3.887 3.887 0 0 0 .334 3.87 5.866 5.866 0 0 0 3.829-.33 8.832 8.832 0 0 1 1.916-4.5 15.324 15.324 0 0 1-6.079.96z" class="cls-2" transform="translate(-15272 2712)"/>
        <path id="Path_21752" d="M237.838 244.526c-1.1 0-1.8.51-2.912 1.379a28.645 28.645 0 0 1 4.7 9.2 4.689 4.689 0 0 1 2.923-.881 25.5 25.5 0 0 0-4.711-9.698z" class="cls-7" transform="rotate(79.98 -8742.843 -7500.866)"/>
        <path id="Path_21753" d="M45.068 49.9c.391-2.466.739-3.709 2.05-5.373-.9-.42-1.391-.816-1.608-1.421a11.752 11.752 0 0 0-2.8 5.768 4.913 4.913 0 0 0 2.358 1.026z" class="cls-7" transform="translate(-15240 2703)"/>
        <path id="Path_21755" d="M203.063 15.393a2.346 2.346 0 0 1 .37 1.925 18.955 18.955 0 0 0 5.3-1.309 4.5 4.5 0 0 0-.416-2.376 10.8 10.8 0 0 1-5.254 1.76z" class="cls-2" transform="translate(-15210 2673)"/>
        <path id="Path_21758" d="M247.084 179.954a2.976 2.976 0 0 0 .154-2.519 18.406 18.406 0 0 1-4.174-1.173 2.734 2.734 0 0 1-.337 1.354 16.4 16.4 0 0 1 4.357 2.338z" class="cls-3" transform="rotate(79.98 -8742.536 -7498.078)"/>
        <path id="Path_21759" d="M263.071 136.241a3.155 3.155 0 0 0-.971-1.779 3.4 3.4 0 0 1-1.757 1.2 4.788 4.788 0 0 0 .647 1.84 6.328 6.328 0 0 1 2.081-1.261z" class="cls-4" transform="rotate(79.98 -8754.454 -7488.08)"/>
        <path id="Path_21760" d="M267.337 213.462a3.271 3.271 0 0 0-1.943 1.976 20.137 20.137 0 0 1 2.612 3.979 3.005 3.005 0 0 1 1.255-.879 17.989 17.989 0 0 1-1.924-5.076z" class="cls-2" transform="rotate(79.98 -8772.235 -7474.18)"/>
        <path id="Path_21761" d="M290.974 165.15a5.739 5.739 0 0 0 1.79-3.146 8.518 8.518 0 0 1-1.127-2.36c-.431.744-.994.934-2.219.96a14.829 14.829 0 0 1 1.556 4.546z" class="cls-3" transform="rotate(79.98 -8754.454 -7488.08)"/>
        <path id="Path_21762" d="M248.244 84.691a5.169 5.169 0 0 0-4.012-1.766 31.928 31.928 0 0 1-4.42 6.1 4.744 4.744 0 0 1 2 1.364 28.427 28.427 0 0 1 6.432-5.698z" class="cls-6" transform="rotate(79.98 -8754.454 -7488.08)"/>
        <path id="Path_21763" d="M231.235 62.255a6.2 6.2 0 0 0 3.8.917 9.212 9.212 0 0 1 2.113-1.877c-.9-.225-1.268-.753-1.661-2.016a16.079 16.079 0 0 1-4.252 2.976z" class="cls-7" transform="translate(-15417 2642)"/>
        <path id="Path_21768" d="M263.752 212.821a14.758 14.758 0 0 0-5.117.62 5.927 5.927 0 0 0 1.684 2.643 4.924 4.924 0 0 1 3.128-.432 3.318 3.318 0 0 1 .305-2.831z" class="cls-4" transform="rotate(79.98 -8837.16 -7533.425)"/>
        <path id="Path_21769" d="M94.163 22.716a2.549 2.549 0 0 1-.984-1.889 20.618 20.618 0 0 0-5.112 3.01 4.886 4.886 0 0 0 1.172 2.345 11.753 11.753 0 0 1 4.924-3.466z" class="cls-4" transform="translate(-15240 2703)"/>
        <path id="Path_21770" d="M266.759 5.651a1.55 1.55 0 0 0-.5 1.467 2.348 2.348 0 0 0 1.451.5 3.518 3.518 0 0 1 1.426-1.335 6.111 6.111 0 0 1-2.377-.632z" class="cls-2" transform="translate(-15241 2694)"/>
        <path id="Path_21773" d="M259.147 132.585a3.332 3.332 0 0 0 .188 2.137 3.585 3.585 0 0 1 2.211-.422 5.072 5.072 0 0 0 .152-2.057 6.7 6.7 0 0 1-2.551.342z" class="cls-7" transform="rotate(79.98 -8775.311 -7470.585)"/>
        <text id="به_خانواده_آرتیبیشن_خوش_آمدید" fill="#fff" font-family="Tahoma" font-size="24px" font-weight="700" transform="translate(-14937 2738)">
            <tspan x="-173.308" y="0">به خانواده آرتیبیشن خوش آمدید</tspan>
        </text>
    </g>
</svg>
