<svg xmlns="http://www.w3.org/2000/svg" width="80" height="86" viewBox="0 0 80 86">
    <defs>
        <radialGradient id="ei442mp53b" cx=".5" cy=".5" r=".5" gradientUnits="objectBoundingBox">
            <stop offset="0" stop-opacity=".161"/>
            <stop offset="1" stop-color="#fff" stop-opacity="0"/>
        </radialGradient>
        <linearGradient id="8kgcg34d4a" x1=".037" x2=".962" y1=".022" y2="1" gradientUnits="objectBoundingBox">
            <stop offset="0" stop-color="#ffb380"/>
            <stop offset="1" stop-color="#f9802f"/>
        </linearGradient>
    </defs>
    <g transform="translate(-1011 -425)">
        <path fill="url(#8kgcg34d4a)" d="M34.232 68.344a14.571 14.571 0 0 1 0-20.533 14.388 14.388 0 0 1 20.425 0 14.569 14.569 0 0 1 0 20.533 14.388 14.388 0 0 1-20.425 0zm8.593-6.694L42.779 65h3.285l.046-3.349zm0-11.386l-.046 8.931h3.285l.046-8.932zM22.666 62.546H4a4 4 0 0 1-4-4V4a4 4 0 0 1 4-4h40.888a4 4 0 0 1 4 4v32.187a22.23 22.23 0 0 0-26.666 21.891 22.592 22.592 0 0 0 .445 4.467zM14.765 24.2a8.1 8.1 0 0 0-3.655 6.261.811.811 0 0 0 .808.813h25.051a.811.811 0 0 0 .808-.813c0-2.248-1.348-4.531-3.7-6.261a16.388 16.388 0 0 0-9.677-2.9 16.215 16.215 0 0 0-9.635 2.9zm4.123-11.913A5.556 5.556 0 1 0 24.444 6.7a5.577 5.577 0 0 0-5.556 5.586z" transform="translate(1021.001 425)"/>
        <ellipse cx="40" cy="2.872" fill="url(#ei442mp53b)" rx="40" ry="2.872" transform="translate(1011 505.256)"/>
    </g>
</svg>
