<svg xmlns="http://www.w3.org/2000/svg" xmlns:xlink="http://www.w3.org/1999/xlink" width="80" height="90" viewBox="0 0 80 90">
    <defs>
        <linearGradient id="i9p76vp5mb" x1=".037" x2=".962" y1=".022" y2="1" gradientUnits="objectBoundingBox">
            <stop offset="0" stop-color="#6bffb0"/>
            <stop offset="1" stop-color="#22d877"/>
        </linearGradient>
        <linearGradient id="7vp3bhwlya" x1=".5" x2=".5" y1="1.136" y2="-.167" gradientUnits="objectBoundingBox">
            <stop offset="0" stop-color="#feba00"/>
            <stop offset="1" stop-color="#fd5900"/>
        </linearGradient>
        <linearGradient id="guf1jajx8d" x1=".5" x2=".5" y1="14.247" y2="-.156" xlink:href="#7vp3bhwlya"/>
        <linearGradient id="ldjrl0h9ke" x1=".5" x2=".5" y1=".783" y2="-16.252" xlink:href="#7vp3bhwlya"/>
        <radialGradient id="dkwutsbuvc" cx=".5" cy=".5" r=".5" gradientUnits="objectBoundingBox">
            <stop offset="0" stop-opacity=".161"/>
            <stop offset="1" stop-color="#fff" stop-opacity="0"/>
        </radialGradient>
    </defs>
    <g transform="translate(-1024.999 -418)">
        <path fill="url(#i9p76vp5mb)" d="M1.841 54.9L0 52.645l2.852-41.55H14.31C15.785 4.356 19.492 0 23.752 0s7.972 4.355 9.441 11.095h11.789l.832 19.219A25.023 25.023 0 0 0 21.575 54.9H1.841zm11.831-38.411a3.07 3.07 0 1 0 3.954-.074v.024c-.008.259-.017.581-.017.89a1.974 1.974 0 0 1-3.949 0c0-.255 0-.53.013-.841zm16.2.021a3.07 3.07 0 1 0 3.955-.12v.133c0 .232.008.522.008.806a1.971 1.971 0 0 1-3.942 0c0-.261-.008-.537-.024-.82zm-6.12-12.594A4.162 4.162 0 0 0 20.7 5.85a14.7 14.7 0 0 0-2.353 5.25h10.807A14.647 14.647 0 0 0 26.8 5.85a4.157 4.157 0 0 0-3.048-1.934z" transform="translate(1024.999 418)"/>
        <ellipse cx="35.955" cy="2.559" fill="url(#dkwutsbuvc)" rx="35.955" ry="2.559" transform="translate(1033.09 502.881)"/>
        <g>
            <path fill="url(#7vp3bhwlya)" d="M121.088 169.074a1.223 1.223 0 0 0 1.229 1.218h34.4a1.218 1.218 0 1 0 0-2.436 3.674 3.674 0 0 1-3.686-3.654v-11.819a13.763 13.763 0 0 0-13.515-13.924A13.462 13.462 0 0 0 126 151.86v12.34a3.674 3.674 0 0 1-3.686 3.654 1.223 1.223 0 0 0-1.226 1.22z" transform="translate(1050.168 454.534) translate(-121.088 -133.59)"/>
            <path fill="url(#guf1jajx8d)" d="M229.736 105.345a15.991 15.991 0 0 1 3.555-.411 15.705 15.705 0 0 1 3.632.447 3.687 3.687 0 0 0-7.187-.036z" transform="translate(1050.168 454.534) translate(-214.894 -102.5)"/>
            <path fill="url(#ldjrl0h9ke)" d="M225.136 393.948a6.135 6.135 0 0 0 4.883-2.436h-9.766a6.135 6.135 0 0 0 4.883 2.436z" transform="translate(1050.168 454.534) translate(-206.707 -352.374)"/>
        </g>
    </g>
</svg>
