<svg xmlns="http://www.w3.org/2000/svg" width="72" height="72" viewBox="0 0 72 72">
    <defs>
        <style>
            .cls-5{fill:none}.cls-4{stroke:none}
        </style>
    </defs>
    <g id="live_view" transform="translate(-1678 -769)">
        <path id="Rectangle_4856" fill="#fafafa" d="M0 0H72V72H0z" data-name="Rectangle 4856" transform="translate(1678 769)"/>
        <path id="couch" d="M28.8 70.5v-1.69A4.807 4.807 0 0 0 24 64H8a4.807 4.807 0 0 0-4.8 4.81v1.69a4 4 0 0 0-1.6 7.12v3.98a1.6 1.6 0 0 0 1.6 1.6h3.2a1.633 1.633 0 0 0 1.59-1.6h16.02a1.633 1.633 0 0 0 1.59 1.6h3.2a1.6 1.6 0 0 0 1.6-1.6v-3.98a4 4 0 0 0-1.6-7.12zM6.4 81.6H3.2v-4.87a2.53 2.53 0 0 1-1.6-2.3A2.4 2.4 0 0 1 4 72.02h1.6a.8.8 0 0 1 .8.8zM24 80H8v-4.775h16zm0-7.18v.78H8v-.78a2.4 2.4 0 0 0-2.4-2.4h-.8v-1.61a3.2 3.2 0 0 1 3.2-3.2h16a3.207 3.207 0 0 1 3.2 3.2v1.605h-.8A2.4 2.4 0 0 0 24 72.82zm4.8 3.9v4.88h-3.2v-8.78a.8.8 0 0 1 .8-.8H28a2.4 2.4 0 0 1 2.4 2.4 2.541 2.541 0 0 1-1.6 2.305z" transform="translate(1708 744)"/>
        <g id="Rectangle_4857" fill="none" stroke="#000" stroke-linecap="square" stroke-width="2px" data-name="Rectangle 4857" transform="translate(1693 785)">
            <rect width="12" height="16" class="cls-4" rx="1"/>
            <rect width="14" height="18" x="-1" y="-1" class="cls-5" rx="2"/>
        </g>
        <g id="Rectangle_4858" fill="none" stroke="#e4e6e9" data-name="Rectangle 4858">
            <path d="M0 0H72V72H0z" class="cls-4" transform="translate(1678 769)"/>
            <path d="M0.5 0.5H71.5V71.5H0.5z" class="cls-5" transform="translate(1678 769)"/>
        </g>
    </g>
</svg>
